<svg id="svg" version="1.1" xmlns="http://www.w3.org/2000/svg" xmlns:xlink="http://www.w3.org/1999/xlink" width="400" height="400" viewBox="0, 0, 400,400"><g id="svgg"><path id="path0" d="M243.521 124.813 C 243.368 125.245,238.807 125.993,236.300 125.997 C 235.255 125.999,234.400 126.180,234.400 126.400 C 234.400 126.620,233.590 126.800,232.600 126.800 C 231.610 126.800,230.800 126.980,230.800 127.200 C 230.800 127.420,230.181 127.600,229.424 127.600 C 228.667 127.600,227.936 127.780,227.800 128.000 C 227.664 128.220,227.124 128.400,226.600 128.400 C 226.076 128.400,225.536 128.580,225.400 128.800 C 225.264 129.020,224.533 129.200,223.776 129.200 C 223.019 129.200,222.400 129.380,222.400 129.600 C 222.400 129.820,221.849 130.000,221.176 130.000 C 220.463 130.000,220.056 130.167,220.200 130.400 C 220.347 130.638,219.871 130.800,219.024 130.800 C 218.241 130.800,217.600 130.951,217.600 131.136 C 217.600 131.547,215.797 132.400,214.927 132.400 C 214.578 132.400,213.875 132.850,213.365 133.400 C 212.829 133.978,211.995 134.400,211.386 134.400 C 210.713 134.400,210.399 134.580,210.517 134.900 C 210.617 135.175,210.947 135.327,211.250 135.238 C 211.552 135.148,214.140 134.992,217.000 134.890 C 220.213 134.775,222.308 134.533,222.483 134.256 C 222.909 133.582,239.634 133.624,239.894 134.300 C 240.011 134.606,240.846 134.800,242.043 134.800 C 243.226 134.800,244.000 134.978,244.000 135.250 C 244.000 135.534,244.431 135.614,245.165 135.467 C 245.934 135.313,246.495 135.432,246.814 135.817 C 247.080 136.138,247.636 136.400,248.049 136.400 C 248.462 136.400,248.800 136.580,248.800 136.800 C 248.800 137.020,249.240 137.200,249.777 137.200 C 250.337 137.200,251.024 137.584,251.385 138.100 C 251.732 138.595,252.147 138.995,252.308 138.988 C 252.468 138.982,253.021 139.477,253.536 140.088 C 254.050 140.700,254.718 141.200,255.020 141.200 C 255.321 141.200,255.791 141.965,256.064 142.900 C 256.337 143.835,256.798 144.746,257.088 144.925 C 257.379 145.103,257.508 145.426,257.374 145.642 C 257.240 145.858,257.357 146.307,257.632 146.639 C 258.301 147.444,258.323 154.353,257.659 154.764 C 257.398 154.925,257.216 155.404,257.255 155.829 C 257.387 157.253,257.203 158.049,256.800 157.800 C 256.563 157.654,256.400 158.109,256.400 158.917 C 256.400 160.526,255.674 162.800,255.161 162.800 C 254.962 162.800,254.800 163.250,254.800 163.800 C 254.800 164.350,254.620 164.800,254.400 164.800 C 254.180 164.800,254.000 165.072,254.000 165.405 C 254.000 165.993,253.833 166.418,252.862 168.295 C 252.608 168.787,252.400 169.462,252.400 169.795 C 252.400 170.128,252.220 170.400,252.000 170.400 C 251.780 170.400,251.600 170.760,251.600 171.200 C 251.600 171.640,251.420 172.000,251.200 172.000 C 250.980 172.000,250.800 172.270,250.800 172.600 C 250.800 172.930,250.662 173.200,250.494 173.200 C 250.207 173.200,248.684 176.229,248.626 176.915 C 248.612 177.088,248.420 177.358,248.199 177.515 C 247.979 177.672,247.544 178.295,247.232 178.900 C 246.920 179.505,246.515 180.000,246.332 180.000 C 246.150 180.000,246.000 180.230,246.000 180.512 C 246.000 180.793,245.640 181.283,245.200 181.600 C 244.760 181.917,244.400 182.457,244.400 182.800 C 244.400 183.143,244.040 183.683,243.600 184.000 C 243.160 184.317,242.800 184.897,242.800 185.288 C 242.800 185.733,242.500 186.000,242.000 186.000 C 241.467 186.000,241.200 186.267,241.200 186.800 C 241.200 187.240,241.050 187.600,240.868 187.600 C 240.685 187.600,240.281 188.095,239.970 188.700 C 239.660 189.305,239.089 190.091,238.703 190.447 C 238.316 190.803,238.000 191.284,238.000 191.516 C 238.000 191.748,237.280 192.554,236.400 193.307 C 235.520 194.060,234.800 194.801,234.800 194.953 C 234.800 195.982,220.015 210.320,219.180 210.100 C 218.971 210.045,218.800 210.187,218.800 210.416 C 218.800 211.012,215.950 213.722,213.712 215.254 C 212.660 215.973,211.571 216.787,211.290 217.062 C 209.909 218.418,207.263 220.400,206.835 220.400 C 206.570 220.400,206.464 220.579,206.599 220.798 C 206.734 221.017,206.340 221.420,205.723 221.692 C 205.105 221.965,204.365 222.505,204.077 222.894 C 203.790 223.282,203.205 223.600,202.777 223.600 C 202.350 223.600,202.000 223.750,202.000 223.932 C 202.000 224.115,201.505 224.520,200.900 224.832 C 200.295 225.145,199.451 225.715,199.025 226.100 C 198.598 226.485,198.047 226.800,197.800 226.800 C 197.553 226.800,196.991 227.136,196.550 227.546 C 195.447 228.574,190.982 231.598,190.551 231.609 C 190.358 231.614,189.750 231.970,189.200 232.400 C 188.650 232.830,187.919 233.186,187.575 233.191 C 187.232 233.196,186.564 233.560,186.092 234.000 C 185.620 234.440,184.906 234.800,184.505 234.800 C 184.104 234.800,183.517 235.160,183.200 235.600 C 182.883 236.040,182.303 236.400,181.912 236.400 C 181.520 236.400,181.200 236.559,181.200 236.754 C 181.200 237.260,178.469 238.490,177.996 238.197 C 177.778 238.063,177.599 238.098,177.597 238.276 C 177.593 238.658,175.677 239.600,174.904 239.600 C 174.608 239.600,173.980 239.960,173.508 240.400 C 173.036 240.840,172.145 241.200,171.529 241.200 C 170.462 241.200,168.800 242.228,168.800 242.889 C 168.800 243.428,171.013 243.226,171.824 242.613 C 172.251 242.290,172.877 242.020,173.215 242.013 C 173.554 242.006,174.512 241.653,175.343 241.229 C 176.175 240.805,178.058 240.345,179.528 240.208 C 180.998 240.071,182.605 239.875,183.100 239.772 C 184.290 239.524,184.331 240.869,183.168 242.032 C 182.350 242.850,182.867 243.935,184.100 243.987 C 184.265 243.994,184.400 244.249,184.400 244.554 C 184.400 245.226,185.094 246.584,186.288 248.251 C 186.777 248.933,187.055 249.612,186.906 249.761 C 186.757 249.910,187.028 250.134,187.508 250.260 C 188.222 250.447,188.307 250.626,187.976 251.244 C 187.629 251.893,187.716 252.000,188.586 252.000 C 189.319 252.000,189.600 252.213,189.600 252.767 C 189.600 253.188,189.825 253.614,190.100 253.712 C 190.375 253.810,190.469 254.031,190.310 254.202 C 190.150 254.374,189.769 254.307,189.464 254.053 C 189.017 253.682,188.919 253.768,188.959 254.496 C 189.022 255.656,191.474 255.558,192.311 254.363 C 192.631 253.906,193.318 253.600,194.023 253.600 C 194.670 253.600,195.200 253.432,195.200 253.227 C 195.200 253.022,195.605 252.730,196.100 252.580 C 196.595 252.429,197.297 252.045,197.661 251.726 C 198.024 251.408,198.564 251.198,198.861 251.261 C 199.450 251.386,201.216 250.313,202.736 248.907 C 203.266 248.417,203.868 248.118,204.072 248.244 C 204.276 248.370,204.769 248.097,205.168 247.637 C 205.567 247.177,206.188 246.800,206.547 246.800 C 206.906 246.800,207.200 246.626,207.200 246.414 C 207.200 246.202,207.582 245.824,208.048 245.574 C 208.644 245.255,208.816 245.251,208.625 245.560 C 208.090 246.426,208.899 245.978,210.000 244.800 C 210.617 244.140,211.248 243.600,211.403 243.600 C 211.558 243.600,212.040 243.148,212.474 242.596 C 212.909 242.044,213.415 241.685,213.598 241.799 C 213.782 241.913,214.640 241.284,215.504 240.403 C 216.368 239.521,217.291 238.800,217.554 238.800 C 217.818 238.800,218.420 238.440,218.892 238.000 C 219.364 237.560,220.077 237.200,220.475 237.200 C 220.874 237.200,221.200 237.029,221.200 236.820 C 221.200 236.281,223.701 234.004,224.297 234.002 C 224.570 234.001,225.018 233.640,225.293 233.200 C 225.568 232.760,225.929 232.400,226.095 232.400 C 226.262 232.400,227.163 231.680,228.097 230.800 C 229.031 229.920,229.918 229.200,230.067 229.200 C 230.216 229.200,231.044 228.480,231.907 227.600 C 232.769 226.720,233.577 226.000,233.701 226.000 C 233.954 226.000,235.961 224.203,239.845 220.500 C 241.287 219.125,242.587 217.996,242.733 217.991 C 243.252 217.973,245.967 215.301,245.719 215.052 C 245.580 214.913,245.685 214.800,245.952 214.800 C 246.633 214.800,248.400 212.956,248.400 212.245 C 248.400 211.920,248.760 211.540,249.200 211.400 C 249.640 211.260,250.000 210.998,250.000 210.817 C 250.000 210.636,250.945 209.491,252.100 208.272 C 253.886 206.388,255.415 204.666,257.413 202.291 C 257.640 202.021,258.262 201.170,258.794 200.400 C 259.327 199.630,260.086 198.709,260.481 198.353 C 260.876 197.997,261.200 197.502,261.200 197.253 C 261.200 197.004,261.380 196.800,261.600 196.800 C 261.820 196.800,262.000 196.530,262.000 196.200 C 262.000 195.870,262.141 195.600,262.314 195.600 C 262.486 195.600,262.927 195.092,263.294 194.472 C 263.660 193.852,264.599 192.647,265.380 191.794 C 266.161 190.941,266.800 189.919,266.800 189.522 C 266.800 189.125,266.946 188.800,267.125 188.800 C 267.304 188.800,267.698 188.170,268.000 187.400 C 268.302 186.630,268.696 186.000,268.875 186.000 C 269.054 186.000,269.200 185.730,269.200 185.400 C 269.200 185.070,269.380 184.800,269.600 184.800 C 269.820 184.800,270.000 184.440,270.000 184.000 C 270.000 183.560,270.180 183.200,270.400 183.200 C 270.620 183.200,270.800 182.840,270.800 182.400 C 270.800 181.960,270.980 181.600,271.200 181.600 C 271.420 181.600,271.600 181.240,271.600 180.800 C 271.600 180.360,271.780 180.000,272.000 180.000 C 272.220 180.000,272.400 179.550,272.400 179.000 C 272.400 178.450,272.546 178.000,272.724 178.000 C 272.903 178.000,273.279 177.100,273.561 176.000 C 273.843 174.900,274.237 174.000,274.437 174.000 C 274.637 174.000,274.800 173.651,274.800 173.224 C 274.800 172.797,274.992 172.328,275.227 172.183 C 275.462 172.038,275.560 171.672,275.444 171.371 C 275.329 171.070,275.496 170.561,275.817 170.240 C 276.138 169.919,276.400 169.104,276.400 168.429 C 276.400 167.753,276.569 167.200,276.775 167.200 C 276.981 167.200,277.139 166.442,277.127 165.516 C 277.114 164.590,277.305 163.765,277.552 163.683 C 277.802 163.599,278.000 162.664,278.000 161.567 C 278.000 160.485,278.135 159.600,278.300 159.600 C 278.465 159.600,278.600 158.310,278.600 156.733 C 278.600 154.796,278.762 153.813,279.100 153.700 C 279.844 153.452,279.732 150.936,278.965 150.642 C 278.461 150.448,278.357 149.911,278.465 148.049 C 278.547 146.612,278.420 145.532,278.136 145.267 C 277.849 145.001,277.757 144.196,277.895 143.167 C 278.066 141.893,277.969 141.414,277.483 141.142 C 277.130 140.945,276.727 139.985,276.577 138.986 C 276.401 137.813,275.905 136.755,275.153 135.950 C 274.519 135.271,274.000 134.562,274.000 134.374 C 274.000 134.186,273.108 133.197,272.017 132.177 C 268.799 129.167,267.823 128.394,267.413 128.529 C 267.200 128.600,266.410 128.240,265.657 127.729 C 264.904 127.218,264.043 126.800,263.744 126.800 C 263.445 126.800,263.200 126.620,263.200 126.400 C 263.200 126.180,262.491 126.000,261.624 126.000 C 260.757 126.000,259.936 125.820,259.800 125.600 C 259.664 125.380,258.944 125.200,258.200 125.200 C 257.456 125.200,256.732 125.013,256.590 124.785 C 256.278 124.278,243.702 124.306,243.521 124.813 M124.089 208.223 C 123.600 208.565,123.200 209.111,123.200 209.435 C 123.200 209.760,122.946 210.122,122.636 210.241 C 122.326 210.361,121.954 210.940,121.809 211.529 C 121.664 212.118,121.153 212.960,120.673 213.400 C 120.193 213.840,119.745 214.560,119.677 215.000 C 119.609 215.440,119.204 216.563,118.777 217.496 C 118.350 218.428,118.000 219.463,118.000 219.796 C 118.000 220.128,117.799 220.400,117.553 220.400 C 117.306 220.400,117.199 220.751,117.312 221.185 C 117.425 221.617,117.282 222.166,116.993 222.405 C 116.705 222.645,116.345 223.744,116.193 224.849 C 116.041 225.953,115.676 226.949,115.381 227.063 C 114.861 227.262,114.906 229.840,115.440 230.373 C 115.962 230.895,116.800 228.906,116.800 227.144 C 116.800 225.669,117.025 224.999,117.800 224.162 C 118.350 223.569,118.800 222.650,118.800 222.120 C 118.800 221.086,120.596 218.123,120.891 218.671 C 121.121 219.096,120.879 218.196,120.533 217.336 C 120.319 216.806,120.441 216.718,121.133 216.898 C 121.990 217.122,122.339 216.657,121.638 216.223 C 121.086 215.883,122.072 214.099,123.123 213.535 C 123.833 213.154,123.991 212.817,123.804 212.073 C 123.662 211.509,123.787 210.834,124.103 210.453 C 125.713 208.514,125.704 207.092,124.089 208.223 M114.400 234.200 C 114.400 235.063,114.561 235.547,114.800 235.400 C 115.020 235.264,115.200 234.724,115.200 234.200 C 115.200 233.676,115.020 233.136,114.800 233.000 C 114.561 232.853,114.400 233.337,114.400 234.200 M113.940 236.423 C 113.123 236.883,113.061 239.122,113.836 240.181 C 114.635 241.275,114.859 240.793,114.721 238.271 C 114.616 236.343,114.514 236.101,113.940 236.423 M186.211 238.244 C 187.327 238.975,187.173 239.600,185.876 239.600 C 185.224 239.600,184.985 239.344,184.942 238.600 C 184.874 237.420,184.930 237.405,186.211 238.244 M165.364 243.142 C 165.542 243.429,165.341 243.600,164.824 243.600 C 164.358 243.600,164.000 243.861,164.000 244.200 C 164.000 244.982,165.933 244.977,166.971 244.191 C 167.875 243.507,167.789 243.363,166.240 242.974 C 165.413 242.767,165.162 242.815,165.364 243.142 M129.000 244.733 C 128.611 245.123,128.807 245.600,129.357 245.600 C 129.664 245.600,130.007 245.360,130.119 245.067 C 130.312 244.564,129.432 244.302,129.000 244.733 M160.052 245.049 C 159.751 245.390,159.166 245.580,158.752 245.472 C 157.854 245.237,157.734 245.923,158.614 246.261 C 159.527 246.611,162.800 245.585,162.800 244.948 C 162.800 244.193,160.743 244.269,160.052 245.049 M152.800 246.633 C 152.250 246.939,151.080 247.194,150.200 247.200 C 149.059 247.209,148.768 247.319,149.186 247.583 C 150.445 248.379,156.753 247.295,156.188 246.380 C 155.854 245.839,153.978 245.980,152.800 246.633 M132.600 246.800 C 132.736 247.020,133.197 247.200,133.624 247.200 C 134.051 247.200,134.400 247.020,134.400 246.800 C 134.400 246.580,133.939 246.400,133.376 246.400 C 132.796 246.400,132.460 246.573,132.600 246.800 M136.000 247.200 C 135.053 247.503,135.068 247.522,136.300 247.560 C 137.015 247.582,137.600 247.420,137.600 247.200 C 137.600 246.748,137.412 246.748,136.000 247.200 " stroke="none" fill="#2eabf7" fill-rule="evenodd"></path><path id="path1" d="M266.414 128.217 C 266.728 128.596,267.069 128.691,267.297 128.463 C 267.524 128.236,268.127 128.542,268.857 129.256 C 269.511 129.895,270.219 130.312,270.430 130.182 C 270.875 129.906,270.537 129.200,269.960 129.200 C 269.743 129.200,269.180 128.840,268.708 128.400 C 267.643 127.408,265.608 127.245,266.414 128.217 M272.000 132.200 C 272.746 132.970,273.508 133.600,273.692 133.600 C 273.876 133.600,273.397 132.970,272.627 132.200 C 271.857 131.430,271.095 130.800,270.935 130.800 C 270.774 130.800,271.254 131.430,272.000 132.200 M224.707 133.890 C 225.426 133.979,226.506 133.977,227.107 133.886 C 227.708 133.795,227.120 133.722,225.800 133.724 C 224.480 133.726,223.988 133.801,224.707 133.890 M237.505 133.883 C 238.002 133.979,238.722 133.975,239.105 133.875 C 239.487 133.775,239.080 133.696,238.200 133.701 C 237.320 133.705,237.007 133.787,237.505 133.883 M274.734 135.151 C 275.028 135.337,275.298 135.645,275.334 135.836 C 275.370 136.027,275.641 136.218,275.935 136.261 C 276.306 136.315,276.257 136.105,275.773 135.570 C 275.389 135.146,274.879 134.803,274.638 134.806 C 274.394 134.810,274.436 134.962,274.734 135.151 M245.902 135.466 C 246.179 135.577,246.285 135.878,246.138 136.134 C 245.992 136.390,246.019 136.467,246.199 136.303 C 246.379 136.140,246.813 136.227,247.163 136.497 C 247.553 136.797,247.505 136.640,247.038 136.093 C 246.619 135.602,246.079 135.214,245.838 135.232 C 245.587 135.250,245.615 135.350,245.902 135.466 M276.548 138.900 C 276.681 139.395,276.804 140.070,276.823 140.400 C 276.845 140.796,276.962 140.730,277.166 140.206 C 277.534 139.264,277.271 138.000,276.707 138.000 C 276.487 138.000,276.415 138.405,276.548 138.900 M277.822 143.964 C 277.533 144.432,277.976 145.600,278.443 145.600 C 278.639 145.600,278.800 145.150,278.800 144.600 C 278.800 143.612,278.258 143.259,277.822 143.964 M278.446 148.076 C 278.421 149.328,278.535 150.436,278.700 150.538 C 278.865 150.640,278.946 149.886,278.880 148.862 C 278.693 145.941,278.497 145.586,278.446 148.076 M257.212 147.420 C 257.223 148.454,257.277 148.509,257.654 147.861 C 257.961 147.332,257.958 146.998,257.641 146.681 C 257.320 146.360,257.203 146.559,257.212 147.420 M258.093 150.800 C 258.093 151.570,258.175 151.885,258.276 151.500 C 258.376 151.115,258.376 150.485,258.276 150.100 C 258.175 149.715,258.093 150.030,258.093 150.800 M257.200 153.920 C 257.200 154.316,256.975 154.877,256.700 155.167 C 256.307 155.581,256.393 155.578,257.100 155.151 C 257.998 154.609,258.359 153.200,257.600 153.200 C 257.380 153.200,257.200 153.524,257.200 153.920 M278.509 156.800 C 278.509 157.790,278.587 158.195,278.682 157.700 C 278.778 157.205,278.778 156.395,278.682 155.900 C 278.587 155.405,278.509 155.810,278.509 156.800 M278.700 159.357 C 278.289 159.669,278.036 160.325,278.087 160.944 C 278.204 162.355,278.800 162.301,278.800 160.880 C 278.800 160.264,279.016 159.544,279.280 159.280 C 279.915 158.645,279.579 158.690,278.700 159.357 M255.625 160.820 C 255.649 162.117,255.674 162.142,256.038 161.232 C 256.294 160.591,256.285 160.125,256.012 159.852 C 255.729 159.569,255.608 159.873,255.625 160.820 M249.011 174.240 C 248.364 175.226,248.366 175.259,249.035 174.884 C 249.423 174.667,249.782 174.200,249.835 173.845 C 249.965 172.954,249.802 173.033,249.011 174.240 M243.462 183.131 C 242.699 183.975,242.619 184.400,243.224 184.400 C 243.457 184.400,243.536 184.220,243.400 184.000 C 243.264 183.780,243.433 183.600,243.776 183.600 C 244.119 183.600,244.400 183.330,244.400 183.000 C 244.400 182.225,244.265 182.244,243.462 183.131 M269.100 185.757 C 268.369 186.312,268.184 186.800,268.704 186.800 C 268.871 186.800,269.232 186.440,269.507 186.000 C 270.089 185.068,270.044 185.040,269.100 185.757 M238.524 189.773 C 237.879 190.508,238.353 190.904,239.048 190.210 C 239.351 189.906,239.600 189.554,239.600 189.429 C 239.600 189.026,239.015 189.213,238.524 189.773 M125.295 208.465 C 125.023 208.737,124.800 209.172,124.800 209.431 C 124.800 209.690,124.527 210.129,124.192 210.406 C 123.752 210.771,123.657 211.298,123.848 212.313 C 123.998 213.113,123.956 213.620,123.751 213.493 C 123.297 213.213,122.347 213.954,121.708 215.089 C 121.398 215.640,121.361 216.052,121.608 216.205 C 122.333 216.653,122.008 217.127,121.133 216.898 C 120.492 216.731,120.325 216.819,120.494 217.236 C 120.819 218.035,121.104 219.064,120.891 218.671 C 120.596 218.123,118.800 221.086,118.800 222.120 C 118.800 222.650,118.350 223.569,117.800 224.162 C 117.040 224.982,116.800 225.675,116.800 227.047 C 116.800 229.093,116.249 230.400,115.386 230.400 C 115.064 230.400,114.800 230.591,114.800 230.824 C 114.800 231.057,114.592 231.119,114.338 230.962 C 114.076 230.800,113.984 230.851,114.125 231.079 C 114.262 231.301,114.116 231.824,113.800 232.241 C 113.484 232.658,113.222 233.180,113.219 233.400 C 113.215 233.620,113.387 233.530,113.600 233.200 C 113.893 232.746,113.989 232.922,113.994 233.924 C 113.997 234.705,113.836 235.146,113.600 235.000 C 113.373 234.859,113.200 235.201,113.200 235.790 C 113.200 236.704,113.296 236.777,114.000 236.400 C 114.758 235.994,114.800 236.096,114.800 238.359 C 114.800 240.395,114.682 240.783,114.000 241.000 C 113.155 241.268,112.926 242.184,113.600 242.600 C 114.116 242.919,114.122 244.400,113.607 244.400 C 113.391 244.400,113.571 245.035,114.007 245.812 C 114.469 246.635,114.800 247.971,114.800 249.012 C 114.800 249.995,114.980 250.800,115.200 250.800 C 115.420 250.800,115.600 251.081,115.600 251.424 C 115.600 251.767,115.780 251.936,116.000 251.800 C 116.232 251.657,116.400 252.048,116.400 252.734 C 116.400 253.448,116.653 254.012,117.042 254.161 C 117.419 254.306,117.586 254.660,117.446 255.024 C 117.311 255.377,117.378 255.537,117.605 255.397 C 117.822 255.263,118.000 255.433,118.000 255.776 C 118.000 256.119,118.180 256.400,118.400 256.400 C 118.620 256.400,118.800 256.676,118.800 257.013 C 118.800 257.349,119.115 257.744,119.500 257.890 C 120.365 258.218,120.850 258.689,121.773 260.100 C 122.225 260.791,122.846 261.200,123.446 261.200 C 123.971 261.200,124.400 261.438,124.400 261.729 C 124.400 262.020,125.127 262.734,126.015 263.315 C 126.904 263.897,127.507 264.154,127.357 263.886 C 127.154 263.526,127.223 263.530,127.621 263.900 C 127.918 264.175,128.619 264.403,129.180 264.406 C 129.985 264.411,130.074 264.494,129.600 264.800 C 129.145 265.094,129.314 265.189,130.300 265.194 C 131.015 265.197,131.600 265.380,131.600 265.600 C 131.600 265.820,131.945 266.000,132.367 266.000 C 132.788 266.000,133.224 266.225,133.335 266.500 C 133.496 266.900,133.543 266.900,133.568 266.500 C 133.617 265.725,134.427 265.908,135.276 266.887 C 135.929 267.641,136.107 267.686,136.453 267.187 C 136.767 266.735,136.908 266.717,137.066 267.108 C 137.328 267.754,157.200 267.798,157.200 267.153 C 157.200 266.931,157.515 266.782,157.900 266.821 C 159.504 266.984,160.833 266.777,160.600 266.400 C 160.443 266.146,161.487 266.000,163.451 266.000 C 165.998 266.000,166.700 265.858,167.400 265.200 C 168.025 264.613,168.853 264.386,170.507 264.348 C 172.102 264.311,172.996 264.077,173.564 263.548 C 174.091 263.057,174.960 262.800,176.095 262.800 C 177.365 262.800,177.976 262.588,178.400 262.000 C 178.801 261.443,179.435 261.200,180.485 261.200 C 181.560 261.200,182.137 260.970,182.493 260.400 C 183.030 259.540,184.243 259.254,183.765 260.100 C 183.539 260.500,183.590 260.500,184.021 260.100 C 184.318 259.825,184.872 259.600,185.253 259.600 C 185.634 259.600,186.060 259.240,186.200 258.800 C 186.340 258.360,186.632 258.000,186.851 258.000 C 187.069 258.000,187.136 258.180,187.000 258.400 C 186.624 259.009,187.180 258.877,187.861 258.196 C 188.193 257.864,188.634 257.698,188.842 257.826 C 189.050 257.954,189.194 257.911,189.163 257.730 C 189.010 256.854,189.263 256.401,189.900 256.406 C 190.498 256.411,190.513 256.469,190.000 256.800 C 189.557 257.086,189.538 257.189,189.929 257.194 C 190.219 257.197,190.729 256.928,191.061 256.596 C 191.393 256.264,191.875 256.113,192.132 256.260 C 192.390 256.408,192.474 256.388,192.319 256.217 C 192.165 256.045,192.287 255.656,192.590 255.352 C 193.210 254.733,193.767 254.606,193.423 255.163 C 193.300 255.362,193.646 255.317,194.192 255.063 C 195.775 254.325,195.784 253.600,194.210 253.600 C 193.321 253.600,192.659 253.866,192.311 254.363 C 191.474 255.558,189.022 255.656,188.959 254.496 C 188.919 253.768,189.017 253.682,189.464 254.053 C 189.769 254.307,190.150 254.374,190.310 254.202 C 190.469 254.031,190.375 253.810,190.100 253.712 C 189.825 253.614,189.600 253.188,189.600 252.767 C 189.600 252.213,189.319 252.000,188.586 252.000 C 187.716 252.000,187.629 251.893,187.976 251.244 C 188.307 250.626,188.222 250.447,187.508 250.260 C 187.028 250.134,186.757 249.910,186.906 249.761 C 187.055 249.612,186.777 248.933,186.288 248.251 C 185.094 246.584,184.400 245.226,184.400 244.554 C 184.400 244.249,184.265 243.994,184.100 243.987 C 182.867 243.935,182.350 242.850,183.168 242.032 C 184.331 240.869,184.290 239.524,183.100 239.772 C 182.605 239.875,180.998 240.071,179.528 240.208 C 178.058 240.345,176.175 240.805,175.343 241.229 C 174.512 241.653,173.593 242.000,173.301 242.000 C 173.010 242.000,172.340 242.283,171.812 242.629 C 170.711 243.350,168.548 243.257,168.701 242.496 C 168.782 242.096,168.642 242.092,168.027 242.476 C 167.601 242.742,167.348 243.116,167.466 243.307 C 167.800 243.847,166.320 244.773,165.100 244.787 C 164.383 244.796,164.000 244.591,164.000 244.200 C 164.000 243.247,163.239 243.504,162.978 244.546 C 162.585 246.111,158.810 246.986,157.997 245.700 C 157.679 245.199,157.494 245.142,157.343 245.500 C 157.228 245.775,156.868 246.000,156.543 246.000 C 156.218 246.000,156.058 246.171,156.188 246.380 C 156.855 247.459,150.069 248.412,149.041 247.384 C 148.325 246.668,147.733 246.636,147.465 247.300 C 147.304 247.700,147.257 247.700,147.232 247.300 C 147.214 247.025,147.009 246.800,146.776 246.800 C 146.543 246.800,146.464 246.980,146.600 247.200 C 146.759 247.457,145.349 247.600,142.657 247.600 C 139.696 247.600,138.398 247.453,138.233 247.100 C 138.047 246.700,137.953 246.700,137.767 247.100 C 137.638 247.375,136.963 247.587,136.267 247.572 C 135.196 247.548,135.124 247.490,135.800 247.200 C 136.484 246.906,136.499 246.852,135.900 246.828 C 135.515 246.813,135.200 246.620,135.200 246.400 C 135.200 246.180,135.020 246.000,134.800 246.000 C 134.580 246.000,134.400 246.283,134.400 246.628 C 134.400 247.053,134.109 247.211,133.500 247.118 C 133.005 247.043,132.645 246.760,132.700 246.491 C 132.755 246.221,132.596 246.000,132.347 246.000 C 132.098 246.000,131.578 245.636,131.193 245.192 C 130.603 244.512,130.455 244.480,130.259 244.992 C 130.130 245.326,129.730 245.600,129.370 245.600 C 128.952 245.600,128.798 245.383,128.945 245.000 C 129.083 244.638,128.947 244.400,128.600 244.400 C 128.272 244.400,128.117 244.160,128.240 243.840 C 128.496 243.172,127.765 242.610,127.402 243.197 C 127.242 243.456,126.929 243.386,126.549 243.006 C 126.219 242.676,126.048 242.246,126.169 242.050 C 126.291 241.853,125.762 241.157,124.995 240.502 C 124.228 239.846,123.600 239.015,123.600 238.655 C 123.600 238.295,123.420 238.000,123.200 238.000 C 122.980 238.000,122.800 237.730,122.800 237.400 C 122.800 237.070,122.647 236.800,122.460 236.800 C 122.273 236.800,122.087 235.675,122.046 234.300 C 122.006 232.925,121.799 231.740,121.586 231.667 C 121.073 231.490,121.086 227.600,121.600 227.600 C 121.830 227.600,122.000 226.360,122.000 224.680 C 122.000 222.942,122.194 221.566,122.480 221.280 C 122.767 220.993,122.794 220.800,122.547 220.800 C 122.319 220.800,122.133 220.215,122.133 219.500 C 122.133 218.785,122.213 218.438,122.309 218.728 C 122.625 219.675,123.455 217.921,123.546 216.116 C 123.635 214.350,124.494 212.227,124.939 212.673 C 125.083 212.816,125.200 212.227,125.200 211.363 C 125.200 210.226,125.421 209.655,126.000 209.293 C 126.440 209.018,126.797 208.570,126.794 208.297 C 126.789 207.938,126.692 207.951,126.442 208.345 C 126.203 208.722,126.050 208.749,125.943 208.430 C 125.831 208.093,125.658 208.102,125.295 208.465 M118.006 218.100 C 118.011 218.828,118.086 218.885,118.400 218.400 C 118.901 217.624,118.901 217.200,118.400 217.200 C 118.180 217.200,118.003 217.605,118.006 218.100 M116.400 222.062 C 116.400 222.760,116.499 222.816,117.000 222.400 C 117.330 222.126,117.600 221.853,117.600 221.794 C 117.600 221.734,117.330 221.582,117.000 221.455 C 116.585 221.296,116.400 221.482,116.400 222.062 M114.800 226.233 C 114.800 227.486,115.739 227.349,115.928 226.069 C 116.013 225.492,115.845 225.200,115.428 225.200 C 115.019 225.200,114.800 225.561,114.800 226.233 M231.276 228.453 C 230.768 229.075,230.169 229.543,229.944 229.492 C 229.719 229.441,229.260 229.850,228.924 230.400 C 228.341 231.353,228.344 231.363,228.984 230.600 C 229.354 230.160,229.818 229.843,230.015 229.895 C 230.466 230.016,232.483 228.027,232.320 227.623 C 232.254 227.458,231.784 227.832,231.276 228.453 M115.200 234.200 C 115.200 234.724,115.020 235.264,114.800 235.400 C 114.561 235.547,114.400 235.063,114.400 234.200 C 114.400 233.337,114.561 232.853,114.800 233.000 C 115.020 233.136,115.200 233.676,115.200 234.200 M184.942 238.600 C 184.985 239.344,185.224 239.600,185.876 239.600 C 187.173 239.600,187.327 238.975,186.211 238.244 C 184.930 237.405,184.874 237.420,184.942 238.600 M202.527 249.135 C 201.903 249.759,201.124 250.374,200.796 250.503 C 200.283 250.704,200.286 250.741,200.822 250.768 C 201.163 250.786,202.054 250.170,202.800 249.400 C 203.546 248.630,204.045 248.000,203.909 248.000 C 203.773 248.000,203.151 248.511,202.527 249.135 M197.776 251.638 C 197.646 251.850,196.968 252.271,196.269 252.574 L 195.000 253.126 196.518 253.097 C 197.471 253.080,197.843 252.947,197.518 252.741 C 197.134 252.497,197.181 252.411,197.700 252.406 C 198.085 252.403,198.400 252.220,198.400 252.000 C 198.400 251.780,198.591 251.600,198.824 251.600 C 199.057 251.600,199.136 251.780,199.000 252.000 C 198.640 252.582,199.168 252.490,199.797 251.860 C 200.251 251.407,200.151 251.315,199.176 251.287 C 198.537 251.269,197.907 251.427,197.776 251.638 " stroke="none" fill="#4b64f7" fill-rule="evenodd"></path><path id="path2" d="M141.200 165.895 C 141.200 186.165,141.276 189.144,141.800 189.345 C 142.324 189.546,142.400 192.652,142.400 213.945 L 142.400 238.316 147.300 238.470 C 151.221 238.593,152.288 238.510,152.640 238.050 C 152.952 237.643,153.518 237.547,154.586 237.720 C 155.639 237.891,156.268 237.789,156.675 237.382 C 156.995 237.062,157.954 236.800,158.805 236.800 C 159.656 236.800,160.471 236.609,160.614 236.377 C 160.761 236.140,161.367 236.061,161.987 236.197 C 162.785 236.372,163.166 236.266,163.337 235.821 C 163.468 235.479,163.857 235.200,164.202 235.200 C 164.546 235.200,165.272 234.909,165.814 234.554 L 166.800 233.908 166.800 218.197 C 166.800 204.524,166.721 202.455,166.193 202.253 C 165.669 202.051,165.601 200.601,165.693 191.510 L 165.800 181.000 166.751 180.952 C 167.369 180.921,167.771 181.166,167.898 181.652 C 168.005 182.063,168.247 182.400,168.435 182.400 C 168.923 182.400,177.201 190.532,177.195 191.006 C 177.192 191.223,178.924 193.057,181.044 195.082 C 183.684 197.603,184.825 198.959,184.662 199.382 C 184.532 199.722,184.576 200.000,184.760 200.000 C 185.102 200.000,189.055 203.830,193.500 208.468 C 194.875 209.903,196.000 211.382,196.000 211.756 C 196.000 212.181,196.262 212.391,196.700 212.318 C 197.169 212.239,197.443 212.500,197.529 213.111 C 197.611 213.689,197.893 213.981,198.303 213.911 C 198.678 213.846,199.041 214.154,199.173 214.648 C 199.298 215.115,200.030 216.011,200.800 216.640 C 202.356 217.911,203.509 219.113,203.984 219.959 C 204.249 220.430,204.437 220.419,205.195 219.889 C 205.688 219.543,206.325 219.350,206.610 219.459 C 206.896 219.569,207.246 219.286,207.391 218.829 C 207.536 218.372,207.957 217.837,208.327 217.639 C 208.697 217.441,210.170 216.341,211.600 215.195 C 213.030 214.049,214.605 212.956,215.100 212.766 C 215.595 212.575,216.000 212.222,216.000 211.981 C 216.000 211.515,216.978 210.400,217.387 210.400 C 217.521 210.400,218.569 209.500,219.715 208.400 C 220.862 207.301,221.935 206.401,222.100 206.400 C 223.905 206.398,221.621 202.999,215.900 197.176 C 214.635 195.888,213.600 194.670,213.600 194.468 C 213.600 194.267,212.610 193.140,211.400 191.964 C 210.190 190.788,209.200 189.725,209.200 189.601 C 209.200 189.212,203.162 183.200,202.771 183.200 C 202.567 183.200,202.400 182.936,202.400 182.614 C 202.400 182.292,202.040 181.835,201.600 181.600 C 201.160 181.365,200.800 180.979,200.800 180.743 C 200.800 180.507,199.855 179.356,198.700 178.185 C 197.545 177.013,195.520 174.849,194.200 173.376 C 192.880 171.902,190.540 169.400,189.000 167.815 C 187.460 166.231,185.570 164.186,184.800 163.271 C 184.030 162.356,183.154 161.606,182.853 161.604 C 182.504 161.601,182.382 161.311,182.516 160.800 C 182.684 160.156,182.528 160.000,181.716 160.000 C 180.904 160.000,180.748 159.844,180.916 159.200 C 181.084 158.557,180.928 158.400,180.119 158.400 C 179.243 158.400,179.146 158.269,179.367 157.390 C 179.599 156.465,179.533 156.402,178.590 156.638 C 177.640 156.877,177.581 156.816,177.824 155.848 C 178.045 154.966,177.954 154.800,177.243 154.800 C 176.667 154.800,176.400 154.547,176.400 154.000 C 176.400 153.560,176.154 153.200,175.854 153.200 C 175.554 153.200,172.989 150.937,170.154 148.172 L 165.000 143.144 153.100 142.909 L 141.200 142.675 141.200 165.895 M227.900 143.694 C 227.149 144.451,226.773 190.400,227.518 190.400 C 228.275 190.400,239.176 178.914,239.191 178.100 C 239.196 177.825,239.380 177.600,239.600 177.600 C 239.820 177.600,240.000 177.400,240.000 177.156 C 240.000 176.911,240.720 175.851,241.600 174.800 C 242.480 173.749,243.205 172.734,243.211 172.544 C 243.217 172.355,243.757 171.493,244.411 170.629 C 245.065 169.765,245.600 168.820,245.600 168.529 C 245.600 168.238,245.881 168.000,246.224 168.000 C 246.567 168.000,246.730 167.811,246.588 167.580 C 246.267 167.062,247.485 164.400,248.042 164.400 C 248.265 164.400,248.326 164.205,248.179 163.966 C 247.911 163.532,249.133 160.719,249.699 160.467 C 249.864 160.394,249.889 159.896,249.755 159.362 C 249.616 158.809,249.731 158.124,250.021 157.774 C 250.352 157.376,250.597 155.360,250.716 152.060 L 250.900 146.962 249.606 145.668 C 248.744 144.806,248.071 144.450,247.590 144.603 C 247.192 144.729,246.752 144.645,246.610 144.416 C 246.469 144.187,246.003 144.000,245.576 144.000 C 245.149 144.000,244.800 143.775,244.800 143.500 C 244.799 142.606,228.797 142.790,227.900 143.694 M247.800 225.200 C 245.826 227.183,243.879 228.800,243.466 228.800 C 242.943 228.800,242.789 228.994,242.959 229.437 C 243.122 229.862,242.936 230.144,242.402 230.284 C 241.961 230.399,241.600 230.748,241.600 231.059 C 241.600 231.370,241.294 231.743,240.919 231.886 C 240.545 232.030,239.708 232.654,239.060 233.274 C 238.412 233.893,237.761 234.400,237.614 234.400 C 237.467 234.400,236.407 235.292,235.258 236.382 C 233.990 237.586,232.940 238.275,232.585 238.139 C 232.184 237.985,232.000 238.184,232.000 238.770 C 232.000 239.240,231.685 239.741,231.300 239.883 C 230.915 240.025,230.510 240.263,230.400 240.411 C 229.841 241.164,226.502 242.950,225.844 242.848 C 225.275 242.760,225.153 242.900,225.351 243.416 C 225.495 243.793,225.420 244.334,225.184 244.619 C 224.618 245.301,225.614 246.502,233.600 254.768 C 234.590 255.793,236.537 257.836,237.928 259.310 L 240.455 261.988 246.085 262.025 C 250.360 262.053,251.795 261.934,252.051 261.531 C 252.588 260.685,252.172 221.600,251.627 221.600 C 251.493 221.600,249.771 223.220,247.800 225.200 " stroke="none" fill="#fbfbfb" fill-rule="evenodd"></path><path id="path3" d="M247.757 124.069 C 247.645 124.251,249.014 124.400,250.800 124.400 C 252.592 124.400,253.949 124.241,253.827 124.044 C 253.551 123.598,248.035 123.620,247.757 124.069 M238.600 124.800 C 238.464 125.020,237.733 125.200,236.976 125.200 C 236.219 125.200,235.600 125.380,235.600 125.600 C 235.600 125.820,236.230 126.000,237.000 126.000 C 237.770 126.000,238.400 125.820,238.400 125.600 C 238.400 125.374,239.533 125.200,241.000 125.200 C 242.467 125.200,243.600 125.026,243.600 124.800 C 243.600 124.578,242.541 124.400,241.224 124.400 C 239.917 124.400,238.736 124.580,238.600 124.800 M257.200 124.800 C 257.200 125.020,258.010 125.200,259.000 125.200 C 259.990 125.200,260.800 125.380,260.800 125.600 C 260.800 125.820,261.250 126.000,261.800 126.000 C 262.350 126.000,262.800 125.820,262.800 125.600 C 262.800 125.380,262.361 125.200,261.824 125.200 C 261.287 125.200,260.736 125.020,260.600 124.800 C 260.464 124.580,259.643 124.400,258.776 124.400 C 257.909 124.400,257.200 124.580,257.200 124.800 M230.600 126.400 C 230.464 126.620,229.913 126.800,229.376 126.800 C 228.839 126.800,228.400 126.980,228.400 127.200 C 228.400 127.420,228.839 127.600,229.376 127.600 C 229.913 127.600,230.464 127.420,230.600 127.200 C 230.736 126.980,231.602 126.797,232.524 126.794 C 233.753 126.789,234.040 126.684,233.600 126.400 C 232.813 125.891,230.914 125.891,230.600 126.400 M263.397 126.406 C 263.262 126.623,263.513 126.800,263.953 126.800 C 264.393 126.800,264.864 126.980,265.000 127.200 C 265.305 127.694,266.800 127.733,266.800 127.247 C 266.800 126.916,265.895 126.521,264.320 126.165 C 263.946 126.080,263.531 126.189,263.397 126.406 M223.800 128.334 L 222.600 128.983 223.587 129.131 C 224.130 129.212,224.640 129.081,224.720 128.839 C 224.801 128.598,225.482 128.400,226.233 128.400 C 226.985 128.400,227.600 128.220,227.600 128.000 C 227.600 127.389,225.149 127.604,223.800 128.334 M219.428 129.829 C 218.636 130.408,218.625 130.800,219.400 130.800 C 219.730 130.800,220.000 130.561,220.000 130.269 C 220.000 129.902,220.387 129.795,221.257 129.923 C 222.118 130.049,222.427 129.967,222.237 129.660 C 221.897 129.110,220.278 129.207,219.428 129.829 M270.252 130.191 C 270.380 130.526,270.652 130.800,270.856 130.800 C 271.469 130.800,274.000 133.527,274.000 134.187 C 274.000 134.524,274.281 134.800,274.624 134.800 C 274.993 134.800,275.131 134.988,274.962 135.262 C 274.783 135.550,274.852 135.615,275.145 135.434 C 275.927 134.950,272.898 131.223,270.709 129.975 C 270.164 129.665,270.068 129.711,270.252 130.191 M215.276 131.424 C 214.988 131.750,214.555 131.896,214.314 131.747 C 214.052 131.585,213.991 131.661,214.162 131.938 C 214.512 132.504,216.000 132.554,216.000 132.000 C 216.000 131.780,216.360 131.600,216.800 131.600 C 217.240 131.600,217.600 131.420,217.600 131.200 C 217.600 130.587,215.867 130.754,215.276 131.424 M211.597 132.700 C 211.593 133.059,209.656 134.000,208.920 134.000 C 208.634 134.000,208.400 134.180,208.400 134.400 C 208.400 134.620,208.659 134.800,208.976 134.800 C 209.293 134.800,209.664 134.620,209.800 134.400 C 209.936 134.180,210.487 134.000,211.024 134.000 C 211.561 134.000,212.000 133.820,212.000 133.600 C 212.000 133.380,212.461 133.200,213.024 133.200 C 213.604 133.200,213.940 133.027,213.800 132.800 C 213.514 132.338,211.602 132.251,211.597 132.700 M222.600 134.400 C 222.444 134.653,223.463 134.800,225.376 134.800 C 227.125 134.800,228.400 134.631,228.400 134.400 C 228.400 134.172,227.208 134.000,225.624 134.000 C 224.097 134.000,222.736 134.180,222.600 134.400 M229.200 134.463 C 229.200 134.657,231.630 134.798,234.600 134.775 C 237.759 134.751,240.000 134.574,240.000 134.349 C 240.000 134.119,237.838 133.993,234.600 134.037 C 231.630 134.076,229.200 134.268,229.200 134.463 M206.480 135.280 C 205.423 136.337,205.915 137.200,207.576 137.200 C 209.323 137.200,210.061 136.600,208.806 136.202 C 208.363 136.061,208.000 135.688,208.000 135.373 C 208.000 134.676,207.137 134.623,206.480 135.280 M214.800 135.372 C 214.800 135.826,214.534 135.868,213.509 135.574 C 212.124 135.177,210.800 135.408,210.800 136.047 C 210.800 136.514,214.751 136.403,215.045 135.928 C 215.156 135.747,216.047 135.600,217.024 135.600 C 218.001 135.600,218.800 135.420,218.800 135.200 C 218.800 134.980,217.900 134.800,216.800 134.800 C 215.332 134.800,214.800 134.952,214.800 135.372 M242.720 135.280 C 243.093 135.653,243.307 135.653,243.680 135.280 C 244.053 134.907,243.947 134.800,243.200 134.800 C 242.453 134.800,242.347 134.907,242.720 135.280 M244.223 136.038 C 244.372 136.278,244.922 136.394,245.444 136.294 C 245.967 136.194,246.567 136.320,246.778 136.574 C 246.989 136.828,247.800 137.286,248.581 137.592 C 249.361 137.899,250.000 138.296,250.000 138.475 C 250.000 138.654,250.360 138.800,250.800 138.800 C 251.240 138.800,251.600 138.980,251.600 139.200 C 251.600 139.420,251.870 139.600,252.200 139.600 C 252.530 139.600,252.800 139.420,252.800 139.200 C 252.800 138.980,252.612 138.800,252.383 138.800 C 252.154 138.800,251.580 138.440,251.108 138.000 C 250.636 137.560,249.923 137.200,249.525 137.200 C 249.126 137.200,248.800 136.999,248.800 136.753 C 248.800 136.506,248.449 136.399,248.015 136.512 C 247.583 136.625,247.021 136.466,246.766 136.159 C 246.212 135.492,243.815 135.378,244.223 136.038 M277.277 140.028 C 277.227 140.672,277.370 141.200,277.594 141.200 C 278.070 141.200,278.148 139.338,277.683 139.051 C 277.509 138.944,277.326 139.383,277.277 140.028 M253.200 140.712 C 253.200 140.883,253.560 141.283,254.000 141.600 C 254.440 141.917,254.800 142.414,254.800 142.705 C 254.800 142.996,255.160 143.620,255.600 144.092 C 256.040 144.564,256.400 145.367,256.400 145.875 C 256.400 146.384,256.580 146.800,256.800 146.800 C 257.415 146.800,257.274 145.359,256.604 144.804 C 256.277 144.532,256.100 144.162,256.211 143.982 C 256.322 143.802,256.238 143.547,256.024 143.415 C 255.810 143.283,255.729 142.931,255.843 142.633 C 255.960 142.328,255.532 141.721,254.864 141.245 C 253.594 140.341,253.200 140.215,253.200 140.712 M154.233 142.347 C 154.115 142.538,156.557 142.726,159.659 142.765 L 165.300 142.837 168.550 146.127 C 170.337 147.937,172.835 150.349,174.100 151.488 C 175.365 152.627,176.400 153.748,176.400 153.980 C 176.400 154.211,176.580 154.400,176.800 154.400 C 177.737 154.400,176.894 153.374,171.407 147.842 L 165.615 142.000 160.031 142.000 C 156.960 142.000,154.351 142.156,154.233 142.347 M230.986 142.422 C 230.843 142.653,233.248 142.800,237.176 142.800 C 240.940 142.800,243.600 142.644,243.600 142.422 C 243.600 142.201,241.027 142.044,237.410 142.044 C 233.957 142.044,231.116 142.212,230.986 142.422 M226.267 143.067 C 225.748 143.585,225.957 190.597,226.480 191.120 C 227.453 192.093,228.707 191.621,230.524 189.600 C 231.513 188.500,232.520 187.600,232.761 187.600 C 233.002 187.600,233.200 187.240,233.200 186.800 C 233.200 186.360,233.032 186.000,232.827 186.000 C 232.622 186.000,232.340 186.360,232.200 186.800 C 232.060 187.240,231.773 187.600,231.561 187.600 C 231.349 187.600,230.513 188.320,229.704 189.200 C 226.641 192.532,226.800 193.726,226.800 167.443 C 226.800 147.050,226.876 144.056,227.400 143.855 C 227.730 143.729,228.000 143.439,228.000 143.213 C 228.000 142.756,226.688 142.646,226.267 143.067 M244.800 143.200 C 244.800 143.420,245.250 143.600,245.800 143.600 C 246.350 143.600,246.800 143.780,246.800 144.000 C 246.800 144.220,247.160 144.400,247.600 144.400 C 248.040 144.400,248.400 144.220,248.400 144.000 C 248.400 143.780,248.040 143.600,247.600 143.600 C 247.160 143.600,246.800 143.420,246.800 143.200 C 246.800 142.980,246.350 142.800,245.800 142.800 C 245.250 142.800,244.800 142.980,244.800 143.200 M250.475 145.625 C 250.571 145.914,250.886 146.229,251.175 146.325 C 251.475 146.425,251.625 146.275,251.525 145.975 C 251.429 145.686,251.114 145.371,250.825 145.275 C 250.525 145.175,250.375 145.325,250.475 145.625 M278.800 147.753 C 278.800 149.183,278.980 150.464,279.200 150.600 C 279.451 150.755,279.600 149.879,279.600 148.247 C 279.600 146.817,279.420 145.536,279.200 145.400 C 278.949 145.245,278.800 146.121,278.800 147.753 M257.443 148.233 C 257.044 149.272,257.168 153.200,257.600 153.200 C 257.829 153.200,258.000 152.000,258.000 150.400 C 258.000 147.559,257.880 147.093,257.443 148.233 M256.486 155.929 C 256.440 156.518,256.196 157.505,255.943 158.122 C 255.586 158.996,255.598 159.350,255.997 159.722 C 256.405 160.104,256.465 160.017,256.290 159.293 C 256.165 158.775,256.313 158.144,256.636 157.822 C 257.240 157.217,257.406 155.374,256.885 155.052 C 256.712 154.945,256.532 155.340,256.486 155.929 M278.800 156.976 C 278.800 159.961,279.449 160.139,279.556 157.183 C 279.608 155.728,279.478 154.800,279.221 154.800 C 278.978 154.800,278.800 155.720,278.800 156.976 M250.800 156.600 C 250.800 157.370,250.620 158.000,250.400 158.000 C 250.180 158.000,250.000 158.360,250.000 158.800 C 250.000 159.240,250.180 159.600,250.400 159.600 C 250.620 159.600,250.800 159.251,250.800 158.824 C 250.800 158.397,250.980 157.936,251.200 157.800 C 251.420 157.664,251.600 157.023,251.600 156.376 C 251.600 155.729,251.420 155.200,251.200 155.200 C 250.980 155.200,250.800 155.830,250.800 156.600 M179.600 157.600 C 179.600 157.820,179.971 158.000,180.424 158.000 C 180.877 158.000,181.136 157.820,181.000 157.600 C 180.864 157.380,180.493 157.200,180.176 157.200 C 179.859 157.200,179.600 157.380,179.600 157.600 M181.200 159.200 C 181.200 159.420,181.571 159.600,182.024 159.600 C 182.477 159.600,182.736 159.420,182.600 159.200 C 182.464 158.980,182.093 158.800,181.776 158.800 C 181.459 158.800,181.200 158.980,181.200 159.200 M182.800 160.800 C 182.800 161.020,183.171 161.200,183.624 161.200 C 184.077 161.200,184.336 161.020,184.200 160.800 C 184.064 160.580,183.693 160.400,183.376 160.400 C 183.059 160.400,182.800 160.580,182.800 160.800 M255.067 160.667 C 254.652 161.082,254.753 162.400,255.200 162.400 C 255.420 162.400,255.600 161.950,255.600 161.400 C 255.600 160.353,255.508 160.226,255.067 160.667 M248.900 162.283 C 248.337 163.495,248.251 164.402,248.700 164.397 C 249.059 164.393,250.000 162.456,250.000 161.720 C 250.000 160.851,249.430 161.143,248.900 162.283 M184.400 162.357 C 184.400 162.554,184.685 162.824,185.033 162.957 C 186.011 163.333,186.141 163.251,185.600 162.600 C 185.048 161.935,184.400 161.804,184.400 162.357 M186.000 164.000 C 186.000 164.220,186.180 164.400,186.400 164.400 C 186.620 164.400,186.800 164.687,186.800 165.037 C 186.800 165.388,187.160 165.769,187.600 165.884 C 188.040 165.999,188.400 166.359,188.400 166.684 C 188.400 167.009,188.743 167.365,189.163 167.474 C 189.583 167.584,190.016 168.017,190.126 168.437 C 190.235 168.857,190.612 169.200,190.963 169.200 C 191.313 169.200,191.600 169.433,191.600 169.718 C 191.600 170.003,192.680 171.210,194.000 172.400 C 195.320 173.590,196.400 174.796,196.400 175.079 C 196.400 175.363,197.480 176.649,198.800 177.937 C 200.120 179.224,201.200 180.485,201.200 180.739 C 201.200 180.993,201.380 181.200,201.600 181.200 C 202.585 181.200,201.818 179.774,199.700 177.671 C 198.435 176.414,196.556 174.399,195.525 173.193 C 190.765 167.626,186.000 163.027,186.000 164.000 M253.696 164.395 C 253.088 165.369,253.051 166.400,253.625 166.400 C 253.859 166.400,253.994 165.995,253.925 165.500 C 253.848 164.945,253.991 164.638,254.300 164.700 C 254.575 164.755,254.800 164.530,254.800 164.200 C 254.800 163.362,254.285 163.452,253.696 164.395 M277.228 165.900 C 277.251 167.103,277.324 167.242,277.600 166.600 C 278.078 165.488,278.078 164.400,277.600 164.400 C 277.380 164.400,277.213 165.075,277.228 165.900 M247.254 166.023 C 246.956 166.696,246.814 167.347,246.937 167.471 C 247.323 167.856,248.400 166.499,248.400 165.629 C 248.400 164.431,247.879 164.611,247.254 166.023 M252.800 167.733 C 252.800 168.100,252.530 168.400,252.200 168.400 C 251.867 168.400,251.600 168.756,251.600 169.200 C 251.600 169.640,251.736 170.000,251.902 170.000 C 252.326 170.000,253.341 167.608,253.044 167.310 C 252.910 167.176,252.800 167.367,252.800 167.733 M245.654 169.223 C 245.356 169.896,245.224 170.557,245.360 170.694 C 245.706 171.039,246.772 169.550,246.787 168.700 C 246.807 167.616,246.252 167.872,245.654 169.223 M276.400 169.024 C 276.400 169.587,276.569 169.943,276.775 169.816 C 277.219 169.541,277.169 168.000,276.715 168.000 C 276.542 168.000,276.400 168.461,276.400 169.024 M275.600 171.400 C 275.600 171.950,275.420 172.400,275.200 172.400 C 274.980 172.400,274.800 172.850,274.800 173.400 C 274.800 173.950,274.656 174.400,274.480 174.400 C 274.305 174.400,273.933 175.075,273.654 175.900 C 273.375 176.725,272.949 177.805,272.706 178.299 C 272.464 178.794,272.388 179.321,272.537 179.470 C 272.942 179.875,273.973 178.333,273.987 177.300 C 273.994 176.805,274.180 176.400,274.400 176.400 C 274.620 176.400,274.800 176.051,274.800 175.624 C 274.800 175.197,274.980 174.736,275.200 174.600 C 275.420 174.464,275.600 173.924,275.600 173.400 C 275.600 172.876,275.780 172.336,276.000 172.200 C 276.220 172.064,276.400 171.603,276.400 171.176 C 276.400 170.749,276.220 170.400,276.000 170.400 C 275.780 170.400,275.600 170.850,275.600 171.400 M250.496 171.595 C 249.895 172.557,249.876 172.800,250.400 172.800 C 250.620 172.800,250.800 172.530,250.800 172.200 C 250.800 171.870,250.980 171.600,251.200 171.600 C 251.420 171.600,251.600 171.420,251.600 171.200 C 251.600 170.541,251.026 170.746,250.496 171.595 M244.080 171.680 C 243.816 171.944,243.600 172.441,243.600 172.784 C 243.600 173.127,243.240 173.632,242.800 173.907 C 242.360 174.182,242.000 174.674,242.000 175.000 C 242.000 175.326,241.640 175.818,241.200 176.093 C 240.760 176.368,240.400 176.819,240.400 177.096 C 240.400 177.373,240.220 177.600,240.000 177.600 C 239.780 177.600,239.600 177.870,239.600 178.200 C 239.600 178.530,239.703 178.800,239.829 178.800 C 240.175 178.800,241.200 177.702,241.202 177.329 C 241.203 177.148,241.743 176.425,242.402 175.722 C 243.061 175.019,243.604 174.299,243.609 174.122 C 243.614 173.945,243.970 173.350,244.400 172.800 C 245.531 171.354,245.281 170.479,244.080 171.680 M248.770 174.100 C 248.477 175.086,248.491 176.000,248.798 176.000 C 249.014 176.000,249.154 175.550,249.108 175.000 C 249.038 174.151,248.880 173.731,248.770 174.100 M247.367 176.927 C 246.856 177.512,246.787 178.800,247.267 178.800 C 247.450 178.800,247.600 178.440,247.600 178.000 C 247.600 177.560,247.780 177.200,248.000 177.200 C 248.220 177.200,248.400 177.020,248.400 176.800 C 248.400 176.259,247.896 176.321,247.367 176.927 M246.165 179.100 C 246.338 179.407,246.206 179.600,245.824 179.600 C 245.133 179.600,244.971 180.611,245.600 181.000 C 245.820 181.136,246.000 180.982,246.000 180.657 C 246.000 180.332,246.225 179.984,246.500 179.883 C 246.887 179.741,246.874 179.576,246.441 179.150 C 246.088 178.802,245.987 178.784,246.165 179.100 M237.082 181.300 C 233.929 184.901,233.600 185.313,233.600 185.661 C 233.600 186.349,234.482 185.974,234.684 185.200 C 234.799 184.760,235.148 184.400,235.459 184.400 C 235.770 184.400,236.128 184.133,236.253 183.807 C 236.378 183.480,237.182 182.468,238.040 181.557 C 238.898 180.646,239.600 179.743,239.600 179.551 C 239.600 178.770,238.829 179.306,237.082 181.300 M271.600 181.024 C 271.600 181.604,271.427 181.940,271.200 181.800 C 270.980 181.664,270.800 181.835,270.800 182.180 C 270.800 182.707,270.928 182.727,271.600 182.307 C 272.415 181.798,272.727 180.000,272.000 180.000 C 271.780 180.000,271.600 180.461,271.600 181.024 M202.800 181.976 C 202.800 182.429,202.980 182.800,203.200 182.800 C 203.420 182.800,203.600 182.541,203.600 182.224 C 203.600 181.907,203.420 181.536,203.200 181.400 C 202.980 181.264,202.800 181.523,202.800 181.976 M166.800 181.957 C 166.800 182.342,183.791 199.600,184.171 199.600 C 185.096 199.600,184.059 198.375,179.882 194.534 C 178.407 193.177,177.200 191.923,177.200 191.747 C 177.200 191.419,167.313 181.600,166.983 181.600 C 166.882 181.600,166.800 181.760,166.800 181.957 M204.400 183.432 C 204.400 183.806,205.480 185.156,206.800 186.431 C 208.120 187.707,209.200 188.871,209.200 189.019 C 209.200 189.329,213.480 193.600,213.791 193.600 C 213.906 193.600,214.000 193.330,214.000 193.000 C 214.000 192.670,213.724 192.400,213.387 192.400 C 213.051 192.400,212.672 192.132,212.547 191.805 C 212.421 191.478,210.717 189.566,208.759 187.558 C 206.802 185.550,205.200 183.758,205.200 183.577 C 205.200 183.395,205.020 183.136,204.800 183.000 C 204.580 182.864,204.400 183.059,204.400 183.432 M270.000 184.087 C 270.000 184.442,269.775 184.816,269.500 184.917 C 269.102 185.063,269.101 185.192,269.497 185.553 C 269.770 185.803,269.908 185.888,269.803 185.743 C 269.698 185.598,269.925 185.248,270.306 184.966 C 270.862 184.556,270.901 184.353,270.500 183.947 C 270.097 183.538,270.000 183.566,270.000 184.087 M240.069 187.639 C 239.310 188.854,239.766 189.016,240.555 187.812 C 240.920 187.256,241.078 186.800,240.905 186.800 C 240.733 186.800,240.357 187.178,240.069 187.639 M268.080 187.280 C 267.816 187.544,267.600 187.994,267.600 188.280 C 267.600 188.566,267.420 188.800,267.200 188.800 C 266.980 188.800,266.800 189.070,266.800 189.400 C 266.800 190.471,267.529 190.034,267.800 188.800 C 267.945 188.140,268.319 187.600,268.632 187.600 C 268.944 187.600,269.200 187.420,269.200 187.200 C 269.200 186.658,268.664 186.696,268.080 187.280 M141.200 214.151 C 141.200 234.711,141.291 238.778,141.760 239.167 C 142.429 239.722,152.282 239.715,152.625 239.159 C 152.747 238.962,153.456 238.800,154.200 238.800 C 154.944 238.800,155.664 238.620,155.800 238.400 C 155.949 238.158,155.404 238.000,154.424 238.000 C 153.531 238.000,152.800 238.185,152.800 238.412 C 152.800 238.678,150.958 238.784,147.561 238.712 L 142.322 238.600 142.217 228.400 C 142.159 222.790,142.087 211.765,142.056 203.900 C 142.020 194.671,141.858 189.600,141.600 189.600 C 141.338 189.600,141.200 198.050,141.200 214.151 M265.252 191.921 C 264.525 192.734,263.637 193.895,263.279 194.500 C 262.921 195.105,262.486 195.600,262.314 195.600 C 262.141 195.600,262.000 195.870,262.000 196.200 C 262.000 196.530,261.820 196.800,261.600 196.800 C 261.380 196.800,261.200 197.072,261.200 197.403 C 261.200 197.907,261.333 197.924,262.001 197.507 C 262.442 197.231,262.739 196.825,262.662 196.603 C 262.585 196.381,262.905 195.840,263.373 195.400 C 264.408 194.427,266.936 190.803,266.726 190.593 C 266.643 190.510,265.980 191.107,265.252 191.921 M235.345 193.102 C 234.651 193.914,234.190 194.829,234.313 195.149 C 234.486 195.602,234.597 195.562,234.822 194.964 C 234.980 194.544,235.675 193.786,236.366 193.280 C 237.057 192.774,237.517 192.189,237.388 191.980 C 237.008 191.365,236.671 191.550,235.345 193.102 M214.000 194.500 C 213.999 194.925,218.234 199.200,218.655 199.200 C 219.250 199.200,218.469 198.052,216.609 196.191 C 214.303 193.886,214.000 193.690,214.000 194.500 M232.300 197.076 C 231.915 197.176,231.600 197.425,231.600 197.629 C 231.600 198.194,232.243 198.072,232.800 197.400 C 233.074 197.070,233.231 196.821,233.149 196.846 C 233.067 196.872,232.685 196.975,232.300 197.076 M231.000 198.400 C 231.136 198.620,230.967 198.800,230.624 198.800 C 230.281 198.800,230.000 199.081,230.000 199.424 C 230.000 199.793,229.812 199.931,229.538 199.762 C 229.252 199.585,229.185 199.652,229.362 199.938 C 229.519 200.192,229.465 200.400,229.242 200.400 C 228.598 200.400,226.760 202.412,227.020 202.832 C 227.149 203.042,227.426 203.108,227.634 202.979 C 227.843 202.850,227.909 202.577,227.783 202.372 C 227.656 202.168,227.743 202.000,227.976 202.000 C 228.646 202.000,231.656 198.814,231.391 198.385 C 231.260 198.173,231.063 198.000,230.953 198.000 C 230.843 198.000,230.864 198.180,231.000 198.400 M260.400 198.276 C 260.399 198.454,259.994 199.080,259.500 199.666 C 257.423 202.129,257.200 202.423,257.201 202.705 C 257.202 202.867,256.581 203.630,255.821 204.400 C 252.761 207.501,251.574 208.923,251.709 209.326 C 251.787 209.560,252.198 209.389,252.625 208.946 C 254.383 207.122,255.600 205.581,255.600 205.180 C 255.600 204.945,255.825 204.882,256.100 205.041 C 256.375 205.199,256.486 205.201,256.347 205.045 C 256.099 204.766,256.471 204.249,259.147 201.156 C 259.887 200.300,260.348 199.600,260.170 199.600 C 259.992 199.600,260.179 199.357,260.584 199.061 C 261.095 198.688,261.180 198.435,260.861 198.237 C 260.607 198.081,260.400 198.098,260.400 198.276 M128.100 199.940 C 126.981 201.122,126.241 202.132,125.632 203.306 C 125.320 203.908,124.915 204.400,124.732 204.400 C 124.550 204.400,124.400 204.678,124.400 205.017 C 124.400 205.356,124.053 206.006,123.629 206.461 C 123.172 206.952,122.964 207.554,123.118 207.944 C 123.351 208.535,123.390 208.531,123.518 207.900 C 123.595 207.515,123.825 207.200,124.029 207.200 C 124.233 207.200,124.400 206.930,124.400 206.600 C 124.400 206.270,124.580 206.000,124.800 206.000 C 125.020 206.000,125.200 205.807,125.200 205.571 C 125.200 204.844,126.388 203.910,127.010 204.149 C 127.667 204.401,127.819 205.200,127.210 205.200 C 126.431 205.200,125.545 207.550,126.002 208.404 C 126.482 209.301,126.884 209.485,126.569 208.664 C 126.456 208.369,126.642 207.897,126.982 207.615 C 127.322 207.333,127.600 206.800,127.600 206.431 C 127.600 205.576,128.505 203.607,128.900 203.603 C 129.065 203.601,129.200 203.240,129.200 202.800 C 129.200 202.360,129.380 202.000,129.600 202.000 C 130.045 202.000,130.131 200.808,129.757 199.833 C 129.439 199.002,128.958 199.034,128.100 199.940 M218.800 199.973 C 218.800 200.178,219.160 200.460,219.600 200.600 C 220.040 200.740,220.400 201.091,220.400 201.380 C 220.400 201.670,220.760 202.001,221.200 202.116 C 221.640 202.231,222.000 202.612,222.000 202.963 C 222.000 203.313,222.180 203.600,222.400 203.600 C 223.597 203.600,222.726 206.167,220.952 207.867 C 219.936 208.840,219.235 209.764,219.396 209.919 C 219.556 210.073,219.960 209.795,220.293 209.300 C 220.625 208.805,221.054 208.400,221.246 208.400 C 221.960 208.400,226.800 203.868,226.800 203.200 C 226.800 202.482,226.218 202.784,225.255 204.004 C 224.186 205.357,223.609 205.528,223.580 204.500 C 223.570 204.115,222.851 203.080,221.983 202.200 C 221.116 201.320,220.404 200.375,220.403 200.100 C 220.401 199.825,220.040 199.600,219.600 199.600 C 219.160 199.600,218.800 199.768,218.800 199.973 M185.230 201.450 C 187.620 204.037,190.384 206.800,190.583 206.800 C 191.444 206.800,188.432 203.341,185.446 200.900 C 184.366 200.017,184.229 200.366,185.230 201.450 M166.852 220.500 C 166.795 235.211,166.732 235.600,164.400 235.600 C 163.960 235.600,163.600 235.780,163.600 236.000 C 163.600 237.227,166.183 236.125,167.093 234.509 C 167.657 233.508,167.756 213.529,167.218 209.400 C 167.020 207.887,166.886 211.987,166.852 220.500 M192.222 208.892 C 193.834 210.693,194.400 211.109,194.400 210.493 C 194.400 209.959,192.253 207.783,191.405 207.457 C 190.990 207.298,191.331 207.897,192.222 208.892 M122.212 208.917 C 122.041 209.312,122.013 209.747,122.151 209.884 C 122.557 210.290,122.884 209.720,122.697 208.931 C 122.532 208.233,122.510 208.232,122.212 208.917 M125.206 210.500 C 125.211 211.228,125.286 211.285,125.600 210.800 C 126.101 210.024,126.101 209.600,125.600 209.600 C 125.380 209.600,125.203 210.005,125.206 210.500 M250.500 209.887 C 249.813 210.134,249.869 210.800,250.576 210.800 C 251.239 210.800,251.763 210.140,251.307 209.882 C 251.138 209.786,250.775 209.789,250.500 209.887 M121.064 211.129 C 120.334 211.936,120.144 213.405,120.825 212.985 C 121.288 212.699,122.113 210.780,121.875 210.542 C 121.795 210.461,121.430 210.725,121.064 211.129 M217.676 210.685 C 217.167 210.783,216.637 211.163,216.498 211.531 C 216.168 212.402,215.370 213.200,214.829 213.200 C 214.593 213.200,214.400 213.380,214.400 213.600 C 214.400 213.820,214.170 214.000,213.888 214.000 C 213.607 214.000,213.117 214.360,212.800 214.800 C 212.483 215.240,212.033 215.600,211.800 215.600 C 211.567 215.600,211.117 215.960,210.800 216.400 C 210.483 216.840,210.008 217.200,209.746 217.200 C 209.483 217.200,208.758 217.740,208.135 218.400 C 207.512 219.060,206.777 219.600,206.501 219.600 C 205.904 219.600,204.400 221.031,204.400 221.600 C 204.400 222.305,205.576 222.027,206.093 221.200 C 206.368 220.760,206.779 220.400,207.008 220.400 C 207.236 220.400,207.676 220.050,207.985 219.621 C 208.293 219.193,208.679 218.925,208.841 219.025 C 209.003 219.126,209.491 218.756,209.926 218.204 C 210.360 217.652,210.834 217.200,210.979 217.200 C 211.125 217.200,211.819 216.661,212.522 216.002 C 213.225 215.343,213.956 214.803,214.147 214.802 C 214.587 214.800,217.167 212.547,218.129 211.325 C 218.530 210.816,218.800 210.425,218.729 210.454 C 218.658 210.484,218.184 210.588,217.676 210.685 M194.800 211.376 C 194.800 211.693,194.980 212.064,195.200 212.200 C 195.420 212.336,195.600 212.077,195.600 211.624 C 195.600 211.171,195.420 210.800,195.200 210.800 C 194.980 210.800,194.800 211.059,194.800 211.376 M248.900 211.465 C 248.116 211.781,248.315 212.400,249.200 212.400 C 249.644 212.400,250.000 212.133,250.000 211.800 C 250.000 211.184,249.770 211.114,248.900 211.465 M124.051 213.629 C 123.766 214.273,123.617 215.025,123.720 215.300 C 123.837 215.613,124.010 215.501,124.183 215.000 C 124.334 214.560,124.622 213.893,124.821 213.519 C 125.020 213.144,125.045 212.752,124.877 212.647 C 124.708 212.543,124.337 212.985,124.051 213.629 M196.508 213.172 C 196.540 213.597,196.709 213.856,196.883 213.749 C 197.327 213.475,197.280 212.400,196.825 212.400 C 196.619 212.400,196.476 212.748,196.508 213.172 M119.067 214.267 C 118.669 214.665,118.745 215.600,119.175 215.600 C 119.381 215.600,119.523 215.240,119.490 214.800 C 119.422 213.896,119.429 213.905,119.067 214.267 M198.000 214.749 C 198.000 215.283,203.168 220.565,203.432 220.301 C 203.685 220.048,202.467 218.006,202.054 217.991 C 201.580 217.973,198.800 215.281,198.800 214.839 C 198.800 214.598,198.620 214.400,198.400 214.400 C 198.180 214.400,198.000 214.557,198.000 214.749 M244.026 216.969 C 243.639 217.435,243.702 217.498,244.377 217.322 C 244.830 217.204,245.200 216.948,245.200 216.753 C 245.200 216.214,244.554 216.332,244.026 216.969 M117.569 217.900 C 117.553 218.065,117.478 218.515,117.405 218.900 C 117.331 219.285,117.435 219.600,117.635 219.600 C 117.836 219.600,118.000 219.150,118.000 218.600 C 118.000 217.711,117.647 217.137,117.569 217.900 M239.710 220.546 C 236.585 223.626,233.984 226.000,233.734 226.000 C 233.434 226.000,232.400 227.110,232.400 227.433 C 232.400 227.593,232.730 227.426,233.132 227.061 C 233.535 226.697,233.981 226.514,234.123 226.656 C 234.265 226.798,234.494 226.620,234.632 226.260 C 234.771 225.899,235.073 225.721,235.304 225.864 C 235.549 226.016,235.605 225.931,235.438 225.662 C 235.281 225.408,235.352 225.200,235.594 225.200 C 235.837 225.200,237.195 224.058,238.613 222.661 C 240.030 221.265,241.275 220.208,241.380 220.313 C 241.484 220.418,241.783 220.036,242.044 219.464 C 242.304 218.893,242.658 218.512,242.831 218.619 C 243.003 218.726,243.258 218.630,243.396 218.407 C 244.219 217.076,241.817 218.470,239.710 220.546 M122.279 219.757 C 122.115 220.174,122.075 220.609,122.191 220.724 C 122.555 221.089,122.876 220.491,122.724 219.731 C 122.583 219.035,122.562 219.036,122.279 219.757 M250.148 220.992 C 249.828 221.825,250.341 222.343,250.781 221.630 C 252.096 219.503,252.400 221.413,252.400 231.787 C 252.400 238.439,252.542 242.000,252.807 242.000 C 253.074 242.000,253.177 238.351,253.107 231.300 L 253.000 220.600 251.697 220.474 C 250.787 220.387,250.320 220.543,250.148 220.992 M115.600 223.000 C 115.600 223.550,115.780 224.000,116.000 224.000 C 116.220 224.000,116.400 223.550,116.400 223.000 C 116.400 222.450,116.220 222.000,116.000 222.000 C 115.780 222.000,115.600 222.450,115.600 223.000 M202.733 222.330 C 202.660 222.512,201.205 223.598,199.500 224.743 C 197.795 225.888,196.400 226.985,196.400 227.182 C 196.400 227.626,198.679 226.519,199.095 225.872 C 199.263 225.612,199.940 225.129,200.600 224.800 C 201.260 224.471,201.890 224.111,202.000 224.001 C 202.110 223.890,202.549 223.607,202.976 223.371 C 203.959 222.829,204.255 222.000,203.467 222.000 C 203.137 222.000,202.807 222.149,202.733 222.330 M246.700 224.371 C 244.448 226.630,244.053 227.200,244.742 227.200 C 245.286 227.200,249.984 222.517,249.712 222.245 C 249.298 221.831,249.076 221.988,246.700 224.371 M114.267 227.067 C 113.846 227.487,113.956 230.726,114.400 231.000 C 114.648 231.153,114.800 230.404,114.800 229.024 C 114.800 226.776,114.748 226.585,114.267 227.067 M121.200 229.600 C 121.200 230.700,121.380 231.600,121.600 231.600 C 121.820 231.600,122.000 230.700,122.000 229.600 C 122.000 228.500,121.820 227.600,121.600 227.600 C 121.380 227.600,121.200 228.500,121.200 229.600 M193.560 228.793 C 192.592 229.449,191.652 229.989,191.471 229.993 C 191.291 229.997,190.871 230.272,190.539 230.604 C 190.207 230.936,189.742 231.088,189.506 230.942 C 189.251 230.785,189.193 230.864,189.362 231.138 C 189.814 231.869,191.146 231.676,191.693 230.800 C 191.968 230.360,192.508 230.000,192.893 230.000 C 193.278 230.000,193.818 229.640,194.093 229.200 C 194.368 228.760,194.909 228.400,195.296 228.400 C 195.683 228.400,196.000 228.220,196.000 228.000 C 196.000 227.345,195.418 227.534,193.560 228.793 M240.258 230.532 C 238.576 232.144,237.200 233.584,237.200 233.732 C 237.200 234.279,237.835 233.963,239.078 232.798 C 239.781 232.139,240.546 231.600,240.778 231.600 C 241.010 231.600,241.200 231.336,241.200 231.014 C 241.200 230.692,241.560 230.235,242.000 230.000 C 242.440 229.765,242.800 229.308,242.800 228.986 C 242.800 228.664,243.160 228.400,243.600 228.400 C 244.040 228.400,244.400 228.220,244.400 228.000 C 244.400 227.015,243.092 227.815,240.258 230.532 M229.523 229.946 C 229.009 230.680,228.795 230.800,228.000 230.800 C 227.780 230.800,227.600 231.092,227.600 231.449 C 227.600 232.274,229.014 231.434,229.919 230.071 C 230.623 229.011,230.258 228.897,229.523 229.946 M113.317 233.626 C 113.272 234.257,113.407 234.880,113.617 235.011 C 113.828 235.141,114.000 234.710,114.000 234.047 C 114.000 232.486,113.425 232.131,113.317 233.626 M186.293 233.200 C 185.484 234.145,185.566 234.177,186.948 233.461 C 187.520 233.164,187.871 232.804,187.727 232.661 C 187.308 232.242,187.021 232.350,186.293 233.200 M226.000 232.732 C 226.000 232.915,225.505 233.320,224.900 233.632 C 223.423 234.394,222.638 235.177,223.007 235.519 C 223.173 235.674,223.390 235.575,223.488 235.300 C 223.586 235.025,223.877 234.800,224.133 234.800 C 224.643 234.799,226.800 233.063,226.800 232.653 C 226.800 232.514,226.620 232.400,226.400 232.400 C 226.180 232.400,226.000 232.550,226.000 232.732 M183.800 234.400 C 183.664 234.620,183.923 234.800,184.376 234.800 C 184.829 234.800,185.200 234.620,185.200 234.400 C 185.200 234.180,184.941 234.000,184.624 234.000 C 184.307 234.000,183.936 234.180,183.800 234.400 M234.800 235.133 C 234.250 235.739,233.170 236.670,232.400 237.202 C 231.630 237.734,230.523 238.671,229.940 239.285 C 229.356 239.898,228.726 240.400,228.540 240.400 C 227.960 240.401,225.856 242.389,226.137 242.670 C 226.283 242.817,226.819 242.546,227.327 242.068 C 227.836 241.591,228.437 241.200,228.664 241.200 C 228.891 241.200,229.402 240.840,229.800 240.400 C 230.198 239.960,230.766 239.600,231.062 239.600 C 231.358 239.600,231.600 239.240,231.600 238.800 C 231.600 238.300,231.867 238.000,232.312 238.000 C 232.703 238.000,233.283 237.640,233.600 237.200 C 233.917 236.760,234.375 236.400,234.619 236.400 C 235.090 236.400,236.800 234.734,236.800 234.274 C 236.800 233.647,235.732 234.106,234.800 235.133 M181.800 235.560 C 180.667 236.148,180.651 236.191,181.501 236.320 C 181.996 236.395,182.672 236.185,183.004 235.853 C 183.867 234.991,183.205 234.829,181.800 235.560 M122.108 236.028 C 122.076 236.452,122.219 236.800,122.425 236.800 C 122.880 236.800,122.927 235.725,122.483 235.451 C 122.309 235.344,122.140 235.603,122.108 236.028 M221.484 236.400 C 221.367 236.847,220.938 237.200,220.513 237.200 C 220.094 237.200,219.364 237.560,218.892 238.000 C 218.420 238.440,217.868 238.800,217.666 238.800 C 217.464 238.800,216.534 239.520,215.600 240.400 C 214.666 241.280,213.743 242.000,213.551 242.000 C 213.358 242.000,213.200 242.180,213.200 242.400 C 213.200 242.620,212.973 242.800,212.696 242.800 C 212.419 242.800,211.965 243.164,211.687 243.609 C 211.102 244.546,212.211 244.058,213.755 242.700 C 214.193 242.315,214.721 242.000,214.930 242.000 C 215.430 242.000,217.200 240.077,217.200 239.533 C 217.200 239.298,217.560 239.201,218.001 239.316 C 218.441 239.431,218.718 239.390,218.616 239.225 C 218.514 239.060,219.078 238.582,219.869 238.162 C 221.297 237.406,222.866 235.600,222.095 235.600 C 221.874 235.600,221.599 235.960,221.484 236.400 M160.800 236.800 C 160.800 237.020,159.990 237.200,159.000 237.200 C 158.010 237.200,157.200 237.380,157.200 237.600 C 157.200 237.820,157.909 238.000,158.776 238.000 C 159.643 238.000,160.464 237.820,160.600 237.600 C 160.736 237.380,161.186 237.200,161.600 237.200 C 162.014 237.200,162.464 237.020,162.600 236.800 C 162.740 236.573,162.404 236.400,161.824 236.400 C 161.261 236.400,160.800 236.580,160.800 236.800 M179.100 237.048 C 178.495 237.366,178.000 237.502,178.000 237.351 C 178.000 237.200,177.640 237.402,177.200 237.800 C 176.760 238.198,176.400 238.402,176.400 238.253 C 176.400 238.104,175.981 238.256,175.468 238.592 C 174.956 238.928,174.387 239.067,174.204 238.901 C 174.021 238.736,174.001 238.825,174.159 239.100 C 174.502 239.695,175.600 239.771,175.600 239.200 C 175.600 238.980,175.941 238.800,176.357 238.800 C 176.774 238.800,177.213 238.544,177.333 238.231 C 177.453 237.918,177.877 237.738,178.276 237.830 C 178.674 237.922,179.347 237.730,179.771 237.403 C 180.845 236.575,180.425 236.352,179.100 237.048 M112.698 238.100 C 112.592 238.815,112.650 239.760,112.827 240.200 C 113.054 240.762,113.157 240.376,113.175 238.900 C 113.203 236.527,112.986 236.162,112.698 238.100 M123.600 238.967 C 123.600 239.388,124.805 240.528,125.021 240.312 C 125.122 240.211,124.844 239.802,124.402 239.402 C 123.961 239.003,123.600 238.807,123.600 238.967 M172.400 240.000 C 172.400 240.220,172.771 240.400,173.224 240.400 C 173.677 240.400,173.936 240.220,173.800 240.000 C 173.664 239.780,173.293 239.600,172.976 239.600 C 172.659 239.600,172.400 239.780,172.400 240.000 M170.200 240.800 C 170.060 241.027,170.396 241.200,170.976 241.200 C 171.539 241.200,172.000 241.020,172.000 240.800 C 172.000 240.580,171.651 240.400,171.224 240.400 C 170.797 240.400,170.336 240.580,170.200 240.800 M126.151 241.710 C 126.293 242.727,127.854 243.771,128.238 243.104 C 128.398 242.827,128.391 242.724,128.223 242.874 C 128.055 243.025,127.498 242.665,126.985 242.074 C 126.277 241.260,126.076 241.172,126.151 241.710 M168.333 241.597 C 168.260 241.815,167.718 242.033,167.129 242.081 C 166.075 242.168,165.942 242.800,166.978 242.800 C 167.790 242.800,169.622 241.755,169.327 241.461 C 168.946 241.079,168.486 241.142,168.333 241.597 M113.200 243.376 C 113.200 243.939,113.380 244.400,113.600 244.400 C 113.820 244.400,114.000 244.051,114.000 243.624 C 114.000 243.197,113.820 242.736,113.600 242.600 C 113.373 242.460,113.200 242.796,113.200 243.376 M163.600 243.200 C 163.600 243.420,163.859 243.600,164.176 243.600 C 164.493 243.600,164.864 243.420,165.000 243.200 C 165.136 242.980,164.877 242.800,164.424 242.800 C 163.971 242.800,163.600 242.980,163.600 243.200 M224.300 243.357 C 223.915 243.649,223.600 244.239,223.600 244.669 C 223.600 245.098,223.915 245.798,224.300 246.225 C 224.685 246.651,225.796 247.962,226.768 249.137 C 227.741 250.312,230.648 253.421,233.229 256.046 C 235.810 258.670,238.023 261.084,238.148 261.409 C 238.273 261.734,238.651 262.000,238.987 262.000 C 239.324 262.000,239.600 262.152,239.600 262.338 C 239.600 262.725,242.676 262.658,243.072 262.262 C 243.216 262.118,242.568 262.000,241.633 262.000 C 240.053 262.000,239.758 261.813,237.466 259.357 C 236.110 257.903,233.027 254.708,230.616 252.257 C 225.805 247.365,224.714 245.732,225.069 243.953 C 225.329 242.653,225.279 242.614,224.300 243.357 M128.200 244.000 C 128.059 244.228,128.404 244.400,129.000 244.400 C 129.596 244.400,129.941 244.228,129.800 244.000 C 129.664 243.780,129.304 243.600,129.000 243.600 C 128.696 243.600,128.336 243.780,128.200 244.000 M130.800 244.549 C 130.800 244.718,131.057 245.114,131.371 245.429 C 132.018 246.075,134.991 246.233,134.600 245.600 C 134.464 245.380,133.769 245.200,133.056 245.200 C 132.343 245.200,131.544 244.984,131.280 244.720 C 131.016 244.456,130.800 244.379,130.800 244.549 M158.200 244.800 C 158.059 245.028,158.404 245.200,159.000 245.200 C 159.596 245.200,159.941 245.028,159.800 244.800 C 159.664 244.580,159.304 244.400,159.000 244.400 C 158.696 244.400,158.336 244.580,158.200 244.800 M152.387 245.617 C 152.064 245.821,151.136 245.991,150.324 245.994 C 149.512 245.997,148.736 246.180,148.600 246.400 C 148.449 246.644,149.063 246.800,150.176 246.800 C 151.179 246.800,152.000 246.620,152.000 246.400 C 152.000 246.180,152.720 246.000,153.600 246.000 C 154.480 246.000,155.200 245.865,155.199 245.700 C 155.198 245.253,153.062 245.190,152.387 245.617 M135.200 246.400 C 135.200 246.620,135.785 246.797,136.500 246.794 C 137.486 246.789,137.655 246.694,137.200 246.400 C 136.414 245.892,135.200 245.892,135.200 246.400 M114.000 247.753 C 114.000 248.523,114.180 249.264,114.400 249.400 C 114.638 249.547,114.800 249.079,114.800 248.247 C 114.800 247.477,114.620 246.736,114.400 246.600 C 114.162 246.453,114.000 246.921,114.000 247.753 M138.400 247.200 C 138.400 247.441,140.075 247.600,142.624 247.600 C 145.337 247.600,146.759 247.457,146.600 247.200 C 146.462 246.977,144.596 246.800,142.376 246.800 C 139.992 246.800,138.400 246.960,138.400 247.200 M203.000 249.200 C 202.602 249.640,202.411 250.000,202.575 250.000 C 202.739 250.000,203.331 249.640,203.891 249.200 C 204.545 248.685,204.697 248.400,204.316 248.400 C 203.990 248.400,203.398 248.760,203.000 249.200 M115.812 252.117 C 115.641 252.512,115.613 252.947,115.751 253.084 C 116.157 253.490,116.484 252.920,116.297 252.131 C 116.132 251.433,116.110 251.432,115.812 252.117 M198.397 251.900 C 198.393 252.238,196.475 253.200,195.805 253.200 C 195.566 253.200,195.350 253.605,195.326 254.100 C 195.301 254.595,195.368 254.775,195.474 254.500 C 195.580 254.225,195.927 254.000,196.246 254.000 C 196.564 254.000,196.933 253.720,197.064 253.377 C 197.196 253.034,197.547 252.848,197.846 252.962 C 198.144 253.077,198.577 252.817,198.808 252.385 C 199.096 251.848,199.097 251.600,198.814 251.600 C 198.586 251.600,198.399 251.735,198.397 251.900 M120.400 259.104 C 120.400 259.271,120.764 259.635,121.209 259.913 C 121.959 260.381,121.981 260.359,121.513 259.609 C 121.009 258.803,120.400 258.526,120.400 259.104 M182.481 260.419 C 181.987 261.210,182.003 261.217,182.916 260.618 C 183.438 260.277,184.013 260.133,184.196 260.299 C 184.379 260.464,184.399 260.375,184.241 260.100 C 183.813 259.357,183.059 259.494,182.481 260.419 M252.545 261.400 C 252.394 261.793,251.770 262.000,250.734 262.000 C 249.782 262.000,249.251 262.159,249.400 262.400 C 250.009 263.385,252.851 262.539,253.100 261.299 C 253.240 260.599,252.823 260.675,252.545 261.400 M178.800 261.514 C 178.800 261.687,179.160 261.829,179.600 261.829 C 180.040 261.829,180.400 261.687,180.400 261.514 C 180.400 261.341,180.040 261.200,179.600 261.200 C 179.160 261.200,178.800 261.341,178.800 261.514 M174.000 263.200 C 174.000 263.420,174.349 263.600,174.776 263.600 C 175.203 263.600,175.664 263.420,175.800 263.200 C 175.940 262.973,175.604 262.800,175.024 262.800 C 174.461 262.800,174.000 262.980,174.000 263.200 M167.362 265.300 C 166.607 266.192,166.607 266.194,167.400 265.553 C 167.840 265.197,168.613 264.943,169.117 264.988 C 169.621 265.032,170.127 264.918,170.241 264.734 C 170.734 263.937,168.074 264.459,167.362 265.300 M130.145 265.478 C 130.577 265.911,131.600 265.971,131.600 265.565 C 131.600 265.364,131.210 265.200,130.733 265.200 C 130.257 265.200,129.992 265.325,130.145 265.478 M133.600 266.400 C 133.600 266.620,133.870 266.800,134.200 266.800 C 134.530 266.800,134.800 266.620,134.800 266.400 C 134.800 266.180,134.530 266.000,134.200 266.000 C 133.870 266.000,133.600 266.180,133.600 266.400 M160.600 266.400 C 160.736 266.620,161.276 266.800,161.800 266.800 C 162.324 266.800,162.864 266.620,163.000 266.400 C 163.147 266.161,162.663 266.000,161.800 266.000 C 160.937 266.000,160.453 266.161,160.600 266.400 M157.200 267.204 C 157.200 267.673,158.666 267.740,158.948 267.285 C 159.055 267.112,158.705 266.934,158.171 266.889 C 157.637 266.845,157.200 266.987,157.200 267.204 " stroke="none" fill="#9999a1" fill-rule="evenodd"></path><path id="path4" d="M238.400 125.562 C 238.400 125.888,241.564 125.695,241.967 125.345 C 242.058 125.265,241.293 125.200,240.267 125.200 C 239.240 125.200,238.400 125.363,238.400 125.562 M212.000 133.600 C 212.000 133.820,211.561 134.000,211.024 134.000 C 210.487 134.000,209.936 134.180,209.800 134.400 C 209.664 134.620,209.203 134.800,208.776 134.800 C 208.055 134.800,207.632 135.923,208.300 136.063 C 210.191 136.457,210.850 136.252,210.621 135.341 C 210.413 134.514,210.526 134.400,211.550 134.400 C 212.216 134.400,212.813 134.143,212.945 133.800 C 213.085 133.435,212.945 133.200,212.587 133.200 C 212.264 133.200,212.000 133.380,212.000 133.600 M213.000 135.200 C 212.860 135.427,213.196 135.600,213.776 135.600 C 214.339 135.600,214.800 135.420,214.800 135.200 C 214.800 134.980,214.451 134.800,214.024 134.800 C 213.597 134.800,213.136 134.980,213.000 135.200 M161.901 143.098 L 165.203 143.232 167.680 145.716 C 169.042 147.082,169.897 147.843,169.578 147.407 C 169.260 146.971,168.154 145.756,167.119 144.707 L 165.238 142.800 161.919 142.881 L 158.600 142.963 161.901 143.098 M234.700 143.096 C 236.075 143.174,238.325 143.174,239.700 143.096 C 241.075 143.018,239.950 142.954,237.200 142.954 C 234.450 142.954,233.325 143.018,234.700 143.096 M245.400 143.885 C 245.840 143.991,246.371 144.240,246.580 144.439 C 247.234 145.060,247.689 144.832,247.057 144.200 C 246.727 143.870,246.039 143.621,245.529 143.646 C 244.712 143.687,244.697 143.716,245.400 143.885 M226.897 167.300 C 226.788 193.749,226.633 192.540,229.704 189.200 C 230.513 188.320,231.349 187.600,231.561 187.600 C 231.773 187.600,232.060 187.240,232.200 186.800 C 232.340 186.360,232.712 186.000,233.027 186.000 C 233.342 186.000,233.600 185.848,233.600 185.662 C 233.600 185.476,234.050 184.801,234.600 184.162 C 235.149 183.523,235.599 182.859,235.600 182.686 C 235.600 182.513,235.015 183.044,234.300 183.865 C 232.692 185.711,228.073 190.153,227.574 190.332 C 227.354 190.411,227.164 181.092,227.100 167.132 L 226.993 143.800 226.897 167.300 M248.832 144.671 C 248.814 144.930,249.274 145.515,249.853 145.970 L 250.906 146.799 250.719 151.979 C 250.600 155.273,250.350 157.378,250.033 157.760 C 249.759 158.091,249.618 158.685,249.721 159.081 C 249.867 159.646,249.917 159.607,249.954 158.900 C 249.979 158.405,250.180 158.000,250.400 158.000 C 250.620 158.000,250.800 157.370,250.800 156.600 C 250.800 155.830,250.980 155.200,251.200 155.200 C 251.441 155.200,251.600 153.533,251.600 151.000 C 251.600 146.804,251.056 145.200,249.633 145.200 C 249.432 145.200,249.176 144.975,249.065 144.700 C 248.923 144.349,248.854 144.340,248.832 144.671 M172.797 150.717 C 174.225 152.050,175.454 153.080,175.527 153.006 C 175.693 152.841,172.208 149.607,171.049 148.849 C 170.582 148.544,171.369 149.385,172.797 150.717 M278.800 154.200 C 278.800 154.530,278.980 154.800,279.200 154.800 C 279.420 154.800,279.600 154.530,279.600 154.200 C 279.600 153.870,279.420 153.600,279.200 153.600 C 278.980 153.600,278.800 153.870,278.800 154.200 M179.206 157.700 C 179.202 158.210,179.499 158.387,180.300 158.354 C 181.143 158.318,181.213 158.261,180.600 158.107 C 180.160 157.997,179.668 157.703,179.506 157.454 C 179.320 157.166,179.210 157.256,179.206 157.700 M180.806 159.300 C 180.802 159.810,181.099 159.987,181.900 159.954 C 182.743 159.918,182.813 159.861,182.200 159.707 C 181.760 159.597,181.268 159.303,181.106 159.054 C 180.920 158.766,180.810 158.856,180.806 159.300 M182.432 160.900 C 182.414 161.285,182.604 161.600,182.853 161.600 C 183.304 161.600,184.543 162.856,187.200 166.009 C 188.646 167.725,190.000 168.717,190.000 168.061 C 190.000 167.859,189.640 167.599,189.200 167.484 C 188.760 167.369,188.400 167.009,188.400 166.684 C 188.400 166.359,188.040 165.999,187.600 165.884 C 187.160 165.769,186.800 165.388,186.800 165.037 C 186.800 164.687,186.620 164.400,186.400 164.400 C 186.180 164.400,186.000 164.142,186.000 163.827 C 186.000 163.512,185.640 163.140,185.200 163.000 C 184.760 162.860,184.400 162.398,184.400 161.973 C 184.400 161.478,184.124 161.200,183.633 161.200 C 183.212 161.200,182.776 160.975,182.665 160.700 C 182.544 160.401,182.450 160.482,182.432 160.900 M248.485 162.413 C 248.218 162.840,248.001 163.417,248.002 163.695 C 248.004 163.973,248.277 163.678,248.610 163.040 C 249.303 161.711,249.211 161.250,248.485 162.413 M247.029 165.661 C 246.683 166.355,246.404 167.120,246.409 167.361 C 246.414 167.603,246.722 167.170,247.092 166.400 C 247.463 165.630,247.954 164.868,248.183 164.706 C 248.460 164.511,248.442 164.410,248.129 164.406 C 247.870 164.403,247.375 164.968,247.029 165.661 M244.077 171.092 C 243.595 171.769,243.200 172.451,243.200 172.606 C 243.200 172.762,242.464 173.767,241.566 174.841 C 240.667 175.915,240.022 177.020,240.134 177.297 C 240.274 177.643,240.347 177.612,240.368 177.196 C 240.386 176.864,240.760 176.368,241.200 176.093 C 241.640 175.818,242.000 175.326,242.000 175.000 C 242.000 174.674,242.360 174.182,242.800 173.907 C 243.240 173.632,243.600 173.101,243.600 172.726 C 243.600 172.352,243.980 171.779,244.444 171.454 C 244.908 171.129,245.213 170.638,245.121 170.362 C 245.020 170.061,244.603 170.353,244.077 171.092 M191.600 170.495 C 192.102 171.169,196.809 176.267,198.700 178.185 C 199.855 179.356,200.800 180.507,200.800 180.743 C 200.800 180.979,201.160 181.365,201.600 181.600 C 202.040 181.835,202.400 182.292,202.400 182.614 C 202.400 182.936,202.583 183.200,202.807 183.200 C 203.031 183.200,204.403 184.460,205.856 186.000 C 207.308 187.540,208.667 188.800,208.874 188.800 C 209.081 188.800,208.159 187.745,206.825 186.456 C 205.491 185.167,204.400 183.817,204.400 183.456 C 204.400 183.067,204.075 182.800,203.600 182.800 C 203.067 182.800,202.800 182.533,202.800 182.000 C 202.800 181.467,202.533 181.200,202.000 181.200 C 201.560 181.200,201.200 180.993,201.200 180.739 C 201.200 180.485,200.120 179.224,198.800 177.937 C 197.480 176.649,196.400 175.380,196.400 175.117 C 196.400 174.854,195.623 173.910,194.674 173.019 C 192.964 171.414,191.215 169.978,191.600 170.495 M239.246 178.038 C 239.221 178.389,238.821 179.019,238.357 179.438 C 237.893 179.857,237.140 180.740,236.684 181.400 C 236.227 182.060,236.702 181.704,237.739 180.610 C 238.784 179.506,239.550 178.348,239.458 178.010 C 239.317 177.488,239.286 177.492,239.246 178.038 M165.771 181.330 C 165.313 182.526,165.807 202.136,166.300 202.300 C 166.691 202.431,166.800 200.202,166.800 192.033 C 166.800 186.295,166.883 181.600,166.983 181.600 C 167.084 181.600,169.368 183.756,172.058 186.392 C 174.748 189.028,177.042 191.091,177.156 190.977 C 177.402 190.732,168.931 182.400,168.435 182.400 C 168.247 182.400,168.010 182.080,167.908 181.690 C 167.695 180.878,166.051 180.601,165.771 181.330 M141.495 189.490 C 141.872 189.757,142.018 193.719,142.102 206.021 L 142.214 222.200 142.207 205.833 C 142.201 191.628,142.121 189.445,141.600 189.303 C 141.161 189.183,141.133 189.233,141.495 189.490 M211.178 191.675 C 212.375 192.900,213.488 194.239,213.649 194.651 C 213.905 195.302,213.947 195.311,213.972 194.715 C 213.999 194.061,211.490 191.240,209.800 190.024 C 209.360 189.708,209.980 190.451,211.178 191.675 M177.200 191.737 C 177.200 192.065,177.917 192.787,181.216 195.785 C 182.417 196.877,183.714 198.227,184.097 198.785 C 184.481 199.343,184.796 199.556,184.797 199.257 C 184.800 198.762,183.755 197.663,178.865 193.019 C 177.949 192.149,177.200 191.572,177.200 191.737 M218.000 199.372 C 218.000 199.467,218.987 200.592,220.194 201.872 C 222.188 203.987,223.203 206.399,222.100 206.400 C 221.935 206.401,220.890 207.274,219.777 208.341 C 218.664 209.409,217.494 210.384,217.177 210.509 C 216.803 210.657,216.908 210.748,217.476 210.768 C 217.958 210.786,218.466 210.617,218.604 210.393 C 218.742 210.170,219.051 210.108,219.289 210.255 C 219.550 210.416,219.608 210.337,219.436 210.059 C 219.278 209.803,219.418 209.325,219.746 208.997 C 220.453 208.290,220.968 208.205,220.562 208.862 C 220.384 209.150,220.452 209.215,220.745 209.034 C 221.002 208.875,221.110 208.578,220.984 208.374 C 220.858 208.170,221.215 207.577,221.777 207.056 C 222.774 206.133,223.264 203.600,222.447 203.600 C 222.252 203.600,221.999 203.240,221.884 202.800 C 221.769 202.360,221.388 202.000,221.037 202.000 C 220.687 202.000,220.400 201.742,220.400 201.427 C 220.400 201.112,220.040 200.740,219.600 200.600 C 219.160 200.460,218.800 200.088,218.800 199.773 C 218.800 199.458,218.620 199.200,218.400 199.200 C 218.180 199.200,218.000 199.278,218.000 199.372 M185.200 200.800 C 185.707 201.240,186.213 201.600,186.323 201.600 C 186.434 201.600,186.198 201.240,185.800 200.800 C 185.402 200.360,184.896 200.000,184.677 200.000 C 184.457 200.000,184.693 200.360,185.200 200.800 M186.800 201.739 C 186.800 201.851,187.430 202.611,188.200 203.427 C 188.970 204.244,189.600 204.746,189.600 204.544 C 189.600 204.342,188.970 203.582,188.200 202.856 C 187.430 202.129,186.800 201.627,186.800 201.739 M125.700 204.598 C 125.425 204.911,125.200 205.354,125.200 205.583 C 125.200 205.812,125.020 206.000,124.800 206.000 C 124.580 206.000,124.400 206.270,124.400 206.600 C 124.400 206.930,124.220 207.200,124.000 207.200 C 123.780 207.200,123.600 207.470,123.600 207.800 C 123.600 208.130,123.420 208.400,123.200 208.400 C 122.980 208.400,122.800 208.745,122.800 209.167 C 122.800 209.588,122.575 210.024,122.300 210.135 C 121.907 210.294,121.909 210.344,122.310 210.368 C 122.590 210.386,122.988 209.959,123.193 209.419 C 123.398 208.880,124.113 208.155,124.783 207.809 C 125.452 207.463,126.000 207.004,126.000 206.790 C 126.000 206.575,126.367 206.033,126.815 205.585 C 127.633 204.767,127.564 203.987,126.676 204.015 C 126.414 204.024,125.975 204.286,125.700 204.598 M190.561 205.987 C 190.869 206.750,191.337 207.446,191.602 207.534 C 192.225 207.742,194.400 210.016,194.400 210.459 C 194.400 210.647,194.670 210.800,195.000 210.800 C 195.342 210.800,195.620 211.187,195.646 211.700 C 195.683 212.418,195.731 212.453,195.881 211.873 C 196.010 211.376,195.298 210.363,193.634 208.673 C 192.295 207.313,190.930 205.840,190.601 205.400 C 190.064 204.682,190.060 204.743,190.561 205.987 M211.600 215.200 C 209.950 216.517,208.471 217.596,208.314 217.597 C 208.157 217.599,207.815 218.005,207.555 218.500 C 207.153 219.266,207.252 219.232,208.221 218.274 C 208.912 217.592,209.644 217.223,210.081 217.337 C 210.477 217.441,210.699 217.361,210.575 217.160 C 210.334 216.769,211.315 215.600,211.883 215.600 C 212.070 215.600,212.483 215.240,212.800 214.800 C 213.117 214.360,213.607 214.000,213.888 214.000 C 214.170 214.000,214.400 213.833,214.400 213.629 C 214.400 213.425,214.715 213.176,215.100 213.076 C 215.599 212.945,215.628 212.880,215.200 212.849 C 214.870 212.825,213.250 213.883,211.600 215.200 M198.204 213.993 C 198.066 214.217,198.130 214.400,198.347 214.400 C 198.564 214.400,198.824 214.715,198.924 215.100 C 199.066 215.641,199.118 215.600,199.154 214.924 C 199.205 213.953,198.597 213.358,198.204 213.993 M200.727 217.000 C 201.381 217.550,202.038 218.000,202.188 218.000 C 202.339 218.000,201.927 217.550,201.273 217.000 C 200.619 216.450,199.962 216.000,199.812 216.000 C 199.661 216.000,200.073 216.450,200.727 217.000 M202.800 218.687 C 202.800 218.943,202.980 219.264,203.200 219.400 C 203.420 219.536,203.600 219.997,203.600 220.424 C 203.600 221.487,204.154 221.397,205.479 220.120 L 206.600 219.040 205.465 219.752 C 204.841 220.144,204.287 220.405,204.233 220.332 C 204.179 220.259,203.834 219.755,203.467 219.211 C 203.100 218.667,202.800 218.431,202.800 218.687 M250.800 221.571 C 250.800 221.807,250.500 222.000,250.133 222.000 C 249.767 222.000,249.577 222.110,249.712 222.245 C 249.984 222.517,245.286 227.200,244.742 227.200 C 244.554 227.200,244.400 227.457,244.400 227.772 C 244.400 228.087,243.995 228.422,243.500 228.518 C 242.705 228.671,242.695 228.697,243.408 228.746 C 243.935 228.781,245.465 227.546,247.800 225.200 C 249.771 223.220,251.519 221.600,251.685 221.600 C 251.850 221.600,252.039 226.010,252.104 231.400 L 252.221 241.200 252.211 231.305 C 252.201 222.205,252.144 221.400,251.500 221.276 C 251.115 221.202,250.800 221.335,250.800 221.571 M241.900 230.032 C 241.515 230.256,241.200 230.688,241.200 230.991 C 241.200 231.293,240.885 231.624,240.500 231.724 C 239.864 231.890,239.868 231.911,240.537 231.954 C 240.963 231.980,241.363 231.662,241.484 231.200 C 241.599 230.760,241.932 230.400,242.223 230.400 C 242.514 230.400,242.864 230.220,243.000 230.000 C 243.314 229.491,242.803 229.506,241.900 230.032 M238.763 233.045 C 238.469 233.399,237.862 233.838,237.414 234.019 C 236.894 234.230,236.817 234.358,237.200 234.374 C 237.530 234.388,238.323 233.949,238.962 233.400 C 239.601 232.850,239.938 232.400,239.711 232.400 C 239.484 232.400,239.057 232.690,238.763 233.045 M165.200 234.795 C 164.870 234.986,164.285 235.240,163.900 235.359 C 163.515 235.478,163.214 235.806,163.232 236.087 C 163.256 236.489,163.307 236.492,163.465 236.100 C 163.576 235.825,164.082 235.600,164.591 235.600 C 165.099 235.600,165.618 235.330,165.745 235.000 C 166.005 234.321,166.013 234.324,165.200 234.795 M235.800 235.600 C 235.402 236.040,234.900 236.400,234.685 236.400 C 234.307 236.400,232.800 237.928,232.800 238.310 C 232.800 238.553,233.839 237.734,235.600 236.103 C 236.370 235.390,236.893 234.805,236.762 234.803 C 236.631 234.802,236.198 235.160,235.800 235.600 M142.100 237.300 L 142.200 238.600 146.400 238.620 L 150.600 238.641 146.524 238.507 L 142.449 238.373 142.224 237.187 C 142.007 236.039,142.003 236.043,142.100 237.300 M160.600 236.400 C 160.464 236.620,159.688 236.803,158.876 236.806 C 157.247 236.813,156.032 237.377,156.566 237.878 C 156.755 238.055,156.990 237.975,157.088 237.700 C 157.194 237.402,157.982 237.200,159.033 237.200 C 160.005 237.200,160.800 237.033,160.800 236.829 C 160.800 236.625,161.115 236.376,161.500 236.276 C 162.131 236.111,162.133 236.088,161.524 236.046 C 161.152 236.021,160.736 236.180,160.600 236.400 M179.830 237.224 C 179.407 237.651,179.227 237.994,179.430 237.987 C 179.901 237.971,181.200 236.994,181.200 236.656 C 181.200 236.192,180.612 236.435,179.830 237.224 M152.667 237.867 C 152.520 238.013,152.403 238.328,152.406 238.567 C 152.410 238.851,152.514 238.841,152.707 238.536 C 152.870 238.281,153.542 237.993,154.201 237.896 L 155.400 237.720 154.167 237.660 C 153.488 237.627,152.813 237.720,152.667 237.867 M231.600 238.800 C 231.600 239.240,231.358 239.600,231.062 239.600 C 230.766 239.600,230.198 239.960,229.800 240.400 C 229.402 240.840,228.865 241.200,228.608 241.200 C 228.350 241.200,227.703 241.670,227.170 242.245 C 226.297 243.186,226.400 243.158,228.200 241.966 C 229.300 241.237,230.290 240.529,230.400 240.392 C 230.510 240.254,230.915 240.025,231.300 239.883 C 231.906 239.660,232.347 238.000,231.800 238.000 C 231.690 238.000,231.600 238.360,231.600 238.800 M113.200 240.376 C 113.200 240.829,113.380 241.200,113.600 241.200 C 113.820 241.200,114.000 240.941,114.000 240.624 C 114.000 240.307,113.820 239.936,113.600 239.800 C 113.380 239.664,113.200 239.923,113.200 240.376 M252.400 251.367 C 252.400 256.519,252.340 260.974,252.266 261.267 C 252.192 261.560,252.207 261.664,252.300 261.498 C 252.392 261.331,252.621 261.290,252.808 261.405 C 252.995 261.521,253.165 257.202,253.186 251.808 C 253.211 245.322,253.084 242.000,252.812 242.000 C 252.541 242.000,252.400 245.208,252.400 251.367 M152.000 246.400 C 152.000 246.620,152.259 246.800,152.576 246.800 C 152.893 246.800,153.264 246.620,153.400 246.400 C 153.536 246.180,153.277 246.000,152.824 246.000 C 152.371 246.000,152.000 246.180,152.000 246.400 M225.882 247.071 C 226.015 247.416,228.121 249.725,230.562 252.201 C 233.003 254.678,236.125 257.912,237.500 259.388 C 238.875 260.864,239.996 261.920,239.992 261.736 C 239.987 261.551,238.142 259.486,235.892 257.146 C 233.641 254.806,230.414 251.441,228.721 249.667 C 227.027 247.894,225.750 246.725,225.882 247.071 " stroke="none" fill="#94acb9" fill-rule="evenodd"></path></g></svg>